<?xml version="1.0" encoding="utf-8"?>
<!-- Generator: Adobe Illustrator 24.1.1, SVG Export Plug-In . SVG Version: 6.00 Build 0)  -->
<svg version="1.1" id="Capa_1" xmlns="http://www.w3.org/2000/svg" xmlns:xlink="http://www.w3.org/1999/xlink" x="0px" y="0px"
	 viewBox="0 0 800 600" style="enable-background:new 0 0 800 600;" xml:space="preserve">
<style type="text/css">
	.st0{fill:#FFFFFF;}
	.st1{fill:none;stroke:#FFFFFF;stroke-width:32;stroke-linecap:round;stroke-miterlimit:10;}
</style>
<path class="st0" d="M400,182c31.5,0,61.1,12.3,83.4,34.6S518,268.5,518,300s-12.3,61.1-34.6,83.4S431.5,418,400,418
	s-61.1-12.3-83.4-34.6S282,331.5,282,300s12.3-61.1,34.6-83.4S368.5,182,400,182 M400,150c-82.8,0-150,67.2-150,150
	s67.2,150,150,150s150-67.2,150-150S482.8,150,400,150L400,150z"/>
<g>
	<line class="st1" x1="400" y1="128" x2="400" y2="64"/>
</g>
<g>
	<line class="st1" x1="400" y1="536" x2="400" y2="472"/>
</g>
<g>
	<line class="st1" x1="572.3" y1="299.9" x2="636.3" y2="299.9"/>
</g>
<g>
	<line class="st1" x1="164.3" y1="299.9" x2="228.3" y2="299.9"/>
</g>
<g>
	<line class="st1" x1="522" y1="421.5" x2="567.2" y2="466.8"/>
</g>
<g>
	<line class="st1" x1="233.5" y1="133" x2="278.7" y2="178.3"/>
</g>
<g>
	<line class="st1" x1="278.7" y1="421.5" x2="233.5" y2="466.8"/>
</g>
<g>
	<line class="st1" x1="567.2" y1="133" x2="522" y2="178.3"/>
</g>
</svg>
