<?xml version="1.0" encoding="utf-8"?>
<!-- Generator: Adobe Illustrator 24.1.1, SVG Export Plug-In . SVG Version: 6.00 Build 0)  -->
<svg version="1.1" id="Capa_1" xmlns="http://www.w3.org/2000/svg" xmlns:xlink="http://www.w3.org/1999/xlink" x="0px" y="0px"
	 viewBox="0 0 800 600" style="enable-background:new 0 0 800 600;" xml:space="preserve">
<style type="text/css">
	.st0{fill:none;stroke:#FFFFFF;stroke-width:28;stroke-miterlimit:10;}
	.st1{fill:none;stroke:#FFFFFF;stroke-width:28;stroke-linecap:round;stroke-miterlimit:10;}
</style>
<g>
	<path class="st0" d="M400.91,389.85"/>
	<path class="st0" d="M400.91,389.85c-19.2,10.62-41.27,16.66-64.76,16.66c-74.01,0-134-59.99-134-134s59.99-134,134-134
		c59.86,0,110.55,39.25,127.74,93.41"/>
</g>
<g>
	<line class="st1" x1="336" y1="101" x2="336" y2="37"/>
</g>
<g>
	<line class="st1" x1="336" y1="509" x2="336" y2="445"/>
</g>
<g>
	<line class="st1" x1="100" y1="272" x2="164" y2="272"/>
</g>
<line class="st1" x1="475.76" y1="411.69" x2="503.37" y2="439.29"/>
<g>
	<line class="st1" x1="169.61" y1="105.54" x2="214.87" y2="150.79"/>
</g>
<g>
	<line class="st1" x1="214.87" y1="394.04" x2="169.61" y2="439.29"/>
</g>
<g>
	<line class="st1" x1="503.37" y1="105.54" x2="458.11" y2="150.79"/>
</g>
<path class="st0" d="M400.09,390.3c13.76,14.04,32.71,21.7,52.48,21.7c42.47,0,108.55,0,173.04,0c31.46,0,67.64-7.87,67.64-66.86
	s-59.78-70-59.78-70c-2.75-35-48.77-75.51-99.89-75.51c-44.83,0-70.79,25.96-83.38,52.7c-16.91,2.75-71.58,27.53-71.58,81.8
	C378.63,357.88,387.03,376.97,400.09,390.3"/>
</svg>
