<?xml version="1.0" encoding="utf-8"?>
<!-- Generator: Adobe Illustrator 24.1.1, SVG Export Plug-In . SVG Version: 6.00 Build 0)  -->
<svg version="1.1" id="Capa_1" xmlns="http://www.w3.org/2000/svg" xmlns:xlink="http://www.w3.org/1999/xlink" x="0px" y="0px"
	 viewBox="0 0 800 600" style="enable-background:new 0 0 800 600;" xml:space="preserve">
<style type="text/css">
	.st0{fill:none;stroke:#FFFFFF;stroke-width:32;stroke-miterlimit:10;}
	.st1{fill:none;stroke:#FFFFFF;stroke-width:32;stroke-linecap:round;stroke-linejoin:round;stroke-miterlimit:10;}
</style>
<path class="st0" d="M394.84,491c26.59,0,57.16-6.65,57.16-56.5s-50.52-59.16-50.52-59.16c-2.33-29.58-41.21-63.81-84.42-63.81
	c-37.89,0-59.82,21.94-70.46,44.54c-14.29,2.33-60.49,23.26-60.49,69.13c0,41.21,29.91,65.81,62.48,65.81
	C284.49,491,340.33,491,394.84,491z"/>
<path class="st1" d="M614.07,415.63c-94.16,0-170.5-76.34-170.5-170.5c0-59.88,30.87-112.54,77.56-142.95
	c-97.08,7.37-173.56,88.48-173.56,187.45c0,9.63,0.73,19.08,2.12,28.32c28.51,11.29,50.08,35.59,51.79,57.39
	c0,0,50.52,9.31,50.52,59.16c0,8.66-0.93,16.02-2.59,22.26c25.81,13.33,55.1,20.87,86.16,20.87c63.33,0,119.35-31.32,153.41-79.31
	C666.36,409.4,640.94,415.63,614.07,415.63z"/>
</svg>
