<?xml version="1.0" encoding="utf-8"?>
<!-- Generator: Adobe Illustrator 24.1.1, SVG Export Plug-In . SVG Version: 6.00 Build 0)  -->
<svg version="1.1" id="Capa_1" xmlns="http://www.w3.org/2000/svg" xmlns:xlink="http://www.w3.org/1999/xlink" x="0px" y="0px"
	 viewBox="0 0 800 600" style="enable-background:new 0 0 800 600;" xml:space="preserve">
<style type="text/css">
	.st0{fill:none;stroke:#FFFFFF;stroke-width:32;stroke-miterlimit:10;}
	.st1{fill:none;stroke:#DFEDF8;stroke-width:32;stroke-miterlimit:10;}
	.st2{fill:none;stroke:#FFFFFF;stroke-width:32;stroke-linecap:round;stroke-miterlimit:10;}
</style>
<path class="st0" d="M317,375.6c0-49.1,47-71.5,61.5-74c10.8-24.2,33.1-47.7,71.7-47.7c9.2,0,18.3,1.6,26.9,4.5
	c-17.5-53.2-67.6-91.6-126.7-91.6c-73.7,0-133.4,59.7-133.4,133.4c0,71.3,55.9,129.5,126.2,133.2C327.7,421.6,317,401.7,317,375.6z"
	/>
<path class="st1" d="M451,254c-38.6,0-60.9,23.5-71.7,47.7c-14.5,2.5-61.5,24.9-61.5,74c0,44.1,30.4,70.4,63.6,70.4
	c14.6,0,32.5,0,52.2,0c-8.8-11.7-14.3-27.2-14.3-45.9c0-0.2,0-0.4,0-0.5c0,0,0,0,0,0c0-49.1,47-71.5,61.5-74
	c7.2-16,19.4-31.7,38-40.5C502.7,267.4,477.7,254,451,254z"/>
<path class="st0" d="M631.8,470c27.1,0,58.2-7.1,58.2-60.5s-51.4-63.3-51.4-63.3c-2.4-31.7-41.9-68.3-85.9-68.3
	c-38.6,0-60.9,23.5-71.7,47.7c-14.5,2.5-61.5,24.9-61.5,74c0,44.1,30.4,70.4,63.6,70.4C519.6,470,576.4,470,631.8,470z"/>
<line class="st2" x1="350.8" y1="120.8" x2="350.8" y2="59.9"/>
<line class="st2" x1="480.1" y1="174.3" x2="523.9" y2="129"/>
<line class="st2" x1="350.8" y1="477.5" x2="350.8" y2="548.1"/>
<line class="st2" x1="226.7" y1="424.8" x2="182.8" y2="468.6"/>
<line class="st2" x1="176.9" y1="299.9" x2="110" y2="299.9"/>
<line class="st2" x1="231.1" y1="173.6" x2="183.2" y2="125.7"/>
</svg>
