<?xml version="1.0" encoding="utf-8"?>
<!-- Generator: Adobe Illustrator 24.1.1, SVG Export Plug-In . SVG Version: 6.00 Build 0)  -->
<svg version="1.1" id="Capa_1" xmlns="http://www.w3.org/2000/svg" xmlns:xlink="http://www.w3.org/1999/xlink" x="0px" y="0px"
	 viewBox="0 0 800 600" style="enable-background:new 0 0 800 600;" xml:space="preserve">
<style type="text/css">
	.st0{fill:none;stroke:#FFFFFF;stroke-width:32;stroke-linecap:round;stroke-linejoin:round;stroke-miterlimit:10;}
	.st1{fill:none;stroke:#DFEDF8;stroke-width:32;stroke-miterlimit:10;}
	.st2{fill:none;stroke:#FFFFFF;stroke-width:32;stroke-miterlimit:10;}
</style>
<g>
	<path class="st0" d="M362.5,314.1c-10,4.7-18.2,11.5-24.7,19.2c0,0.1,0,0.1,0.1,0.2c12.7-15.1,31.7-26.5,58.6-26.5
		c19.1,0,37.4,6.9,52.2,17.4c-12.9-24-20.2-51.5-20.2-80.6c0-59.9,30.9-112.5,77.6-142.9c-97.1,7.4-173.6,88.5-173.6,187.4
		c0,1.2,0,2.4,0,3.6C344,297.4,354.4,305.2,362.5,314.1z"/>
	<path class="st0" d="M598.8,414.2c-31,0-60.1-8.3-85.1-22.7c10.7,9.6,20,24.4,20,47.1c0,16.6-3,28.7-8,37.6
		c61.1-1.7,114.9-32.6,148-79.2C651.1,408,625.7,414.2,598.8,414.2z"/>
	<path class="st0" d="M480.8,366.8c0.8,2.9,1.3,5.7,1.5,8.5c0,0,6.4,1.2,14.6,5.2C491.3,376.2,485.9,371.6,480.8,366.8z"/>
</g>
<g>
	<path class="st1" d="M295.3,283.5c-38.6,0-60.9,23.5-71.7,47.7c-14.5,2.5-61.5,24.9-61.5,74c0,44.1,30.4,70.4,63.6,70.4
		c14.6,0,32.5,0,52.2,0c-8.8-11.7-14.3-27.2-14.3-45.9c0-0.2,0-0.4,0-0.5c0,0,0,0,0,0c0-49.1,47-71.5,61.5-74
		c7.2-16,19.4-31.7,38-40.5C347,297,322,283.5,295.3,283.5z"/>
	<path class="st2" d="M476.1,499.5c27.1,0,58.2-7.1,58.2-60.5s-51.4-63.3-51.4-63.3c-2.4-31.7-41.9-68.3-85.9-68.3
		c-38.6,0-60.9,23.5-71.7,47.7c-14.5,2.5-61.5,24.9-61.5,74c0,44.1,30.4,70.4,63.6,70.4C363.9,499.5,420.7,499.5,476.1,499.5z"/>
</g>
</svg>
