<?xml version="1.0" encoding="utf-8"?>
<!-- Generator: Adobe Illustrator 24.1.1, SVG Export Plug-In . SVG Version: 6.00 Build 0)  -->
<svg version="1.1" id="Capa_1" xmlns="http://www.w3.org/2000/svg" xmlns:xlink="http://www.w3.org/1999/xlink" x="0px" y="0px"
	 viewBox="0 0 800 600" style="enable-background:new 0 0 800 600;" xml:space="preserve">
<style type="text/css">
	.st0{fill:none;stroke:#FFFFFF;stroke-width:32;stroke-linecap:round;stroke-miterlimit:10;}
	.st1{fill:none;stroke:#FFFFFF;stroke-width:32;stroke-miterlimit:10;}
	.st2{fill:none;stroke:#CBCBCB;stroke-width:32;stroke-miterlimit:10;}
</style>
<g>
	<line class="st0" x1="342" y1="143.7" x2="342" y2="87"/>
</g>
<g>
	<line class="st0" x1="342" y1="504" x2="342" y2="447.3"/>
</g>
<g>
	<line class="st0" x1="134" y1="295" x2="190.7" y2="295"/>
</g>
<g>
	<line class="st0" x1="194.8" y1="148" x2="234.8" y2="188"/>
</g>
<line class="st0" x1="214.8" y1="423" x2="194.8" y2="443"/>
<g>
	<line class="st0" x1="489.9" y1="148" x2="449.9" y2="188"/>
</g>
<path class="st1" d="M223.7,290.2c2.8-62.9,54.7-113.1,118.3-113.1c38.8,0,73.3,18.7,94.9,47.6"/>
<path class="st2" d="M370.1,205.6c-51.8,0-81.7,29.6-96.1,60.1c-19.4,3.2-82.5,31.4-82.5,93.3c0,55.6,40.8,88.7,85.3,88.7
	c19.6,0,43.6,0,70,0c-11.8-14.7-19.2-34.3-19.2-57.9c0-0.3,0-0.5,0-0.6l0,0c0-61.9,63-90.1,82.5-93.3c9.7-20.2,26-40,51-51.1
	C439.4,222.6,405.9,205.6,370.1,205.6z"/>
<path class="st1" d="M611.8,478c36.3,0,78-9,78-76.3S621,321.9,621,321.9c-3.2-40-56.2-86.1-115.2-86.1c-51.8,0-81.7,29.6-96.1,60.1
	c-19.4,3.2-82.5,31.4-82.5,93.3c0,55.6,40.8,88.7,85.3,88.7C461.4,478,537.6,478,611.8,478z"/>
</svg>
