<?xml version="1.0" encoding="utf-8"?>
<!-- Generator: Adobe Illustrator 24.1.1, SVG Export Plug-In . SVG Version: 6.00 Build 0)  -->
<svg version="1.1" id="Capa_1" xmlns="http://www.w3.org/2000/svg" xmlns:xlink="http://www.w3.org/1999/xlink" x="0px" y="0px"
	 viewBox="0 0 800 600" style="enable-background:new 0 0 800 600;" xml:space="preserve">
<style type="text/css">
	.st0{fill:none;stroke:#FFFFFF;stroke-width:32;stroke-linecap:round;stroke-linejoin:round;stroke-miterlimit:10;}
	.st1{fill:none;stroke:#CBCBCB;stroke-width:32;stroke-miterlimit:10;}
	.st2{fill:none;stroke:#FFFFFF;stroke-width:32;stroke-miterlimit:10;}
</style>
<g>
	<path class="st0" d="M413.1,268.1c9-3.9,19-6.7,30.3-7.9c-2.6-11.6-4-23.7-4-36.1c0-58,29.9-109,75.1-138.4
		c-82.5,6.3-149.6,67.5-164.8,147.2C374.7,238.6,397.1,251.9,413.1,268.1z"/>
	<path class="st0" d="M631.9,386.8c3.6,7.1,6.2,15.3,7.4,24.7c14.5-11.1,27.2-24.3,37.8-39.2C663,379.2,647.9,384.2,631.9,386.8z"/>
</g>
<g>
	<path class="st1" d="M323.2,229.3c-51.3,0-81,29-95.3,59c-19.2,3.1-81.8,30.8-81.8,91.5c0,54.6,40.4,87,84.5,87
		c19.4,0,43.2,0,69.4,0c-11.7-14.4-19-33.7-19-56.8c0-0.3,0-0.5,0-0.6l0,0c0-60.7,62.4-88.4,81.8-91.5c9.6-19.8,25.8-39.2,50.6-50.1
		C391.9,246,358.7,229.3,323.2,229.3z"/>
	<path class="st2" d="M562.8,496.6c36,0,77.3-8.8,77.3-74.9s-68.2-78.3-68.2-78.3c-3.2-39.2-55.7-84.5-114.2-84.5
		c-51.3,0-81,29-95.3,59c-19.2,3.1-81.8,30.8-81.8,91.5c0,54.6,40.4,87,84.5,87C413.7,496.6,489.2,496.6,562.8,496.6z"/>
</g>
</svg>
