<?xml version="1.0" encoding="utf-8"?>
<!-- Generator: Adobe Illustrator 24.1.1, SVG Export Plug-In . SVG Version: 6.00 Build 0)  -->
<svg version="1.1" id="Capa_1" xmlns="http://www.w3.org/2000/svg" xmlns:xlink="http://www.w3.org/1999/xlink" x="0px" y="0px"
	 viewBox="0 0 800 600" style="enable-background:new 0 0 800 600;" xml:space="preserve">
<style type="text/css">
	.st0{fill:none;stroke:#CBCBCB;stroke-width:32;stroke-miterlimit:10;}
</style>
<path class="st0" d="M275.3,353.6c0-69,69.5-100.5,91-104c10.7-22.7,28.9-44.9,56.8-57.2c-23.8-25.1-61.1-44.3-100.8-44.3
	c-57,0-90,33-106,67c-21.5,3.5-91,35-91,104c0,62,45,99,94,99c21.6,0,48,0,77.2,0C283.4,401.7,275.3,379.9,275.3,353.6z"/>
<path class="st0" d="M589.3,451.8c40,0,86-10,86-85s-76-89-76-89c-3.5-44.5-62-96-127-96c-57,0-90,33-106,67c-21.5,3.5-91,35-91,104
	c0,62,45,99,94,99C423.3,451.8,507.3,451.8,589.3,451.8z"/>
</svg>
