<?xml version="1.0" encoding="utf-8"?>
<!-- Generator: Adobe Illustrator 24.1.1, SVG Export Plug-In . SVG Version: 6.00 Build 0)  -->
<svg version="1.1" id="Capa_1" xmlns="http://www.w3.org/2000/svg" xmlns:xlink="http://www.w3.org/1999/xlink" x="0px" y="0px"
	 viewBox="0 0 800 600" style="enable-background:new 0 0 800 600;" xml:space="preserve">
<style type="text/css">
	.st0{fill:#FFFFFF;}
	.st1{fill:none;stroke:#FFFFFF;stroke-width:32;stroke-linecap:round;stroke-miterlimit:10;}
	.st2{opacity:0.5;fill:none;stroke:#FFFFFF;stroke-width:16;stroke-linecap:round;stroke-miterlimit:10;}
</style>
<g>
	<path class="st0" d="M391.7,188.5c29.8,0,57.8,11.6,78.8,32.7s32.7,49.1,32.7,78.8s-11.6,57.8-32.7,78.8
		c-21.1,21.1-49.1,32.7-78.8,32.7s-57.8-11.6-78.8-32.7c-21.1-21.1-32.7-49.1-32.7-78.8s11.6-57.8,32.7-78.8
		S361.9,188.5,391.7,188.5 M391.7,158.3c-78.3,0-141.7,63.5-141.7,141.7s63.5,141.7,141.7,141.7S533.4,378.3,533.4,300
		S470,158.3,391.7,158.3L391.7,158.3z"/>
	<g>
		<line class="st1" x1="392" y1="137.5" x2="392" y2="77"/>
	</g>
	<g>
		<line class="st1" x1="392" y1="523" x2="392" y2="462.5"/>
	</g>
	<g>
		<line class="st1" x1="554.5" y1="300" x2="615" y2="300"/>
	</g>
	<g>
		<line class="st1" x1="169" y1="300" x2="229.5" y2="300"/>
	</g>
	<g>
		<line class="st1" x1="506.9" y1="414.8" x2="549.7" y2="457.6"/>
	</g>
	<g>
		<line class="st1" x1="234.3" y1="142.2" x2="277.1" y2="185"/>
	</g>
	<g>
		<line class="st1" x1="277.1" y1="414.8" x2="234.3" y2="457.6"/>
	</g>
	<g>
		<line class="st1" x1="549.7" y1="142.2" x2="506.9" y2="185"/>
	</g>
</g>
<line class="st2" x1="207" y1="220" x2="523" y2="220"/>
<line class="st2" x1="223" y1="200" x2="610" y2="200"/>
<line class="st2" x1="599" y1="180" x2="277" y2="180"/>
<line class="st2" x1="348" y1="150" x2="634" y2="150"/>
<line class="st2" x1="294" y1="129" x2="685" y2="129"/>
<line class="st2" x1="352" y1="107" x2="664" y2="107"/>
</svg>
