<?xml version="1.0" encoding="utf-8"?>
<!-- Generator: Adobe Illustrator 24.1.1, SVG Export Plug-In . SVG Version: 6.00 Build 0)  -->
<svg version="1.1" id="Capa_1" xmlns="http://www.w3.org/2000/svg" xmlns:xlink="http://www.w3.org/1999/xlink" x="0px" y="0px"
	 viewBox="0 0 800 600" style="enable-background:new 0 0 800 600;" xml:space="preserve">
<style type="text/css">
	.st0{fill:none;stroke:#FFFFFF;stroke-width:32;stroke-linecap:round;stroke-linejoin:round;stroke-miterlimit:10;}
	.st1{opacity:0.5;fill:none;stroke:#FFFFFF;stroke-width:16;stroke-linecap:round;stroke-miterlimit:10;}
</style>
<g>
	<path class="st0" d="M492.7,416.2c-95.3,0-172.6-77.3-172.6-172.6c0-60.6,31.2-113.9,78.5-144.7C300.4,106.5,223,188.6,223,288.7
		C223,393.8,308.2,479,413.3,479c64.1,0,120.8-31.7,155.3-80.3C545.7,409.9,519.9,416.2,492.7,416.2z"/>
</g>
<line class="st1" x1="207" y1="220" x2="523" y2="220"/>
<line class="st1" x1="223" y1="200" x2="610" y2="200"/>
<line class="st1" x1="599" y1="180" x2="277" y2="180"/>
<line class="st1" x1="348" y1="150" x2="634" y2="150"/>
<line class="st1" x1="294" y1="129" x2="685" y2="129"/>
<line class="st1" x1="352" y1="107" x2="664" y2="107"/>
</svg>
