<?xml version="1.0" encoding="utf-8"?>
<!-- Generator: Adobe Illustrator 24.1.1, SVG Export Plug-In . SVG Version: 6.00 Build 0)  -->
<svg version="1.1" id="Capa_1" xmlns="http://www.w3.org/2000/svg" xmlns:xlink="http://www.w3.org/1999/xlink" x="0px" y="0px"
	 viewBox="0 0 800 600" style="enable-background:new 0 0 800 600;" xml:space="preserve">
<style type="text/css">
	.st0{fill:none;stroke:#FFFFFF;stroke-width:32;stroke-linecap:round;stroke-linejoin:round;stroke-miterlimit:10;}
	.st1{fill:none;stroke:#0060AA;stroke-width:15;stroke-linecap:round;stroke-miterlimit:10;}
	.st2{fill:none;stroke:#DFEDF8;stroke-width:32;stroke-miterlimit:10;}
	.st3{fill:none;stroke:#FFFFFF;stroke-width:32;stroke-miterlimit:10;}
</style>
<g>
	<path class="st0" d="M371.7,236.1c-17.3,8.4-29.3,22.8-36.9,37.9c0.1,0.2,0.1,0.4,0.2,0.7c11.8-24,34.5-46.2,72.1-46.2
		c8.6,0,17.1,1.4,25.2,3.9c-4.6-15.4-7.1-31.8-7.1-48.7c0-59.9,30.9-112.5,77.6-142.9c-90.4,6.9-163,77.7-172.5,167.4
		C346.6,213.8,361.1,223.9,371.7,236.1z"/>
	<path class="st0" d="M595.7,354.1c-17.2,0-33.8-2.6-49.5-7.3c1.8,6.2,2.8,13.2,2.8,21.1c0,22.9-5.2,37.7-13.3,47.3
		c55.7-5.4,104.2-35.1,134.9-78.4C648,347.9,622.6,354.1,595.7,354.1z"/>
</g>
<line class="st1" x1="432.5" y1="342.8" x2="400.5" y2="398.2"/>
<line class="st1" x1="470.9" y1="343.5" x2="438.9" y2="399"/>
<line class="st1" x1="361.9" y1="465.5" x2="329.9" y2="521"/>
<line class="st1" x1="400.9" y1="465.5" x2="368.9" y2="521"/>
<path class="st2" d="M302.1,204.1c-39.9,0-62.9,24.9-74.1,50.5c-15,2.6-63.6,26.4-63.6,78.4c0,46.7,31.4,74.6,65.7,74.6
	c15.1,0,33.6,0,54,0c-9.1-12.4-14.8-28.8-14.8-48.6c0-0.2,0-0.4,0-0.5l0,0c0-52,48.6-75.8,63.6-78.4c7.4-17,20.1-33.6,39.3-42.9
	C355.5,218.3,329.7,204.1,302.1,204.1z"/>
<path class="st3" d="M489.2,433.1c28,0,60.2-7.5,60.2-64.1s-53.1-67.1-53.1-67.1c-2.5-33.6-43.3-72.4-88.8-72.4
	c-39.9,0-62.9,24.9-74.1,50.5c-15,2.6-63.6,26.4-63.6,78.4c0,46.7,31.4,74.6,65.7,74.6C373.3,433.1,432,433.1,489.2,433.1z"/>
</svg>
