<?xml version="1.0" encoding="utf-8"?>
<!-- Generator: Adobe Illustrator 24.1.1, SVG Export Plug-In . SVG Version: 6.00 Build 0)  -->
<svg version="1.1" id="Capa_1" xmlns="http://www.w3.org/2000/svg" xmlns:xlink="http://www.w3.org/1999/xlink" x="0px" y="0px"
	 viewBox="0 0 800 600" style="enable-background:new 0 0 800 600;" xml:space="preserve">
<style type="text/css">
	.st0{fill:#FFFFFF;}
	.st1{fill:none;stroke:#FFFFFF;stroke-width:16;stroke-linecap:round;stroke-miterlimit:10;}
	.st2{fill:none;stroke:#FFFFFF;stroke-width:32;stroke-linecap:round;stroke-miterlimit:10;}
	.st3{fill:none;stroke:#CBCBCB;stroke-width:32;stroke-miterlimit:10;}
	.st4{fill:none;stroke:#FFFFFF;stroke-width:32;stroke-miterlimit:10;}
</style>
<path class="st0" d="M320,386.5c-16.7-5.2-32-14.4-44.7-27.1c-20.7-20.7-32.1-48.2-32.1-77.4s11.4-56.7,32.1-77.4
	s48.2-32.1,77.4-32.1c29.2,0,56.7,11.4,77.4,32.1c9.3,9.3,16.7,20,22.1,31.6c12.4,0.8,24.3,4.5,35,10
	c-15.8-59.5-70.1-103.4-134.5-103.4c-76.8,0-139.2,62.3-139.2,139.2s62.3,139.2,139.2,139.2c1.2,0,2.3,0,3.5,0
	C340.6,415.5,327.3,403.6,320,386.5z"/>
<line class="st1" x1="494.5" y1="420.2" x2="526.5" y2="364.8"/>
<line class="st1" x1="593" y1="417.4" x2="625" y2="362"/>
<line class="st1" x1="507" y1="531.4" x2="539" y2="476"/>
<line class="st1" x1="376" y1="543.4" x2="408" y2="488"/>
<g>
	<line class="st2" x1="353" y1="122.2" x2="353" y2="63"/>
</g>
<g>
	<line class="st2" x1="353" y1="501" x2="353" y2="441.8"/>
</g>
<g>
	<line class="st2" x1="134" y1="282" x2="193.2" y2="282"/>
</g>
<g>
	<line class="st2" x1="198.2" y1="127.1" x2="240.2" y2="169.1"/>
</g>
<g>
	<line class="st2" x1="240.2" y1="394.7" x2="198.2" y2="436.8"/>
</g>
<g>
	<line class="st2" x1="507.9" y1="127.1" x2="465.9" y2="169.1"/>
</g>
<path class="st3" d="M446.1,235.7c-38.4,0-60.6,23.1-71.4,46.9c-14.5,2.4-61.3,24.5-61.3,72.7c0,43.3,30.3,69.2,63.3,69.2
	c14.6,0,32.4,0,52,0c-8.8-11.5-14.3-26.7-14.3-45.1c0-0.2,0-0.4,0-0.5l0,0c0-48.2,46.8-70.3,61.3-72.7c7.1-15.8,19.4-31.2,37.9-39.8
	C497.6,248.9,472.7,235.7,446.1,235.7z"/>
<path class="st4" d="M626.4,448.1c27,0,58-7,58-59.5s-51.2-62.3-51.2-62.3c-2.4-31.2-41.7-67.2-85.6-67.2
	c-38.4,0-60.6,23.1-71.4,46.9c-14.5,2.4-61.3,24.5-61.3,72.7c0,43.3,30.3,69.2,63.3,69.2C514.7,448.1,571.3,448.1,626.4,448.1z"/>
</svg>
