<?xml version="1.0" encoding="utf-8"?>
<!-- Generator: Adobe Illustrator 24.1.1, SVG Export Plug-In . SVG Version: 6.00 Build 0)  -->
<svg version="1.1" id="Capa_1" xmlns="http://www.w3.org/2000/svg" xmlns:xlink="http://www.w3.org/1999/xlink" x="0px" y="0px"
	 viewBox="0 0 800 600" style="enable-background:new 0 0 800 600;" xml:space="preserve">
<style type="text/css">
	.st0{fill:none;stroke:#CBCBCB;stroke-width:32;stroke-miterlimit:10;}
	.st1{fill:none;stroke:#CBCBCB;stroke-width:32;stroke-linecap:round;stroke-miterlimit:10;}
</style>
<path class="st0" d="M322.5,59c-58.3,0-92,36.4-108.4,73.8c-22,3.8-93.1,38.6-93.1,114.4c0,68.2,46,108.9,96.1,108.9
	c22.2,0,49.2,0,79,0c-13.4-18.1-21.7-42-21.7-71c0-0.3,0-0.6,0-0.8l0,0c0-75.9,71.1-110.7,93.1-114.4c10.8-24.9,29.5-49.1,57.6-62.7
	C400.7,79.8,362.9,59,322.5,59z"/>
<path class="st0" d="M596.3,393.4c41,0,88.1-11,88.1-93.7s-77.8-98.1-77.8-98.1c-3.6-49.1-63.3-105.8-130-105.8
	c-58.3,0-92,36.4-108.4,73.8c-22,3.8-93.1,38.6-93.1,114.4c0,68.2,46,108.9,96.1,108.9C426.6,393.4,512.6,393.4,596.3,393.4z"/>
<line class="st1" x1="400.7" y1="421" x2="449.3" y2="333.8"/>
<line class="st1" x1="503.5" y1="410.5" x2="552.1" y2="323.3"/>
<line class="st1" x1="415" y1="524.5" x2="463.6" y2="437.3"/>
<line class="st1" x1="285.9" y1="535.5" x2="334.5" y2="448.3"/>
</svg>
