<?xml version="1.0" encoding="utf-8"?>
<!-- Generator: Adobe Illustrator 24.1.1, SVG Export Plug-In . SVG Version: 6.00 Build 0)  -->
<svg version="1.1" id="Capa_1" xmlns="http://www.w3.org/2000/svg" xmlns:xlink="http://www.w3.org/1999/xlink" x="0px" y="0px"
	 viewBox="0 0 800 600" style="enable-background:new 0 0 800 600;" xml:space="preserve">
<style type="text/css">
	.st0{fill:none;stroke:#FFFFFF;stroke-width:32;stroke-linecap:round;stroke-miterlimit:10;}
	.st1{fill:none;stroke:#FCFCFC;stroke-width:8;stroke-linecap:round;stroke-miterlimit:10;}
</style>
<path class="st0" d="M250.7,290.8c0-61,53.5-88.9,70-92c9.5-23.3,26.9-46.1,54.7-55.1c-17.9-19.3-43.6-31.4-72.1-31.4
	c-54.3,0-98.3,44-98.3,98.3c0,34.9,18.2,65.6,45.7,83C250.7,292.6,250.7,291.7,250.7,290.8z"/>
<line class="st0" x1="303.6" y1="78.3" x2="303.6" y2="33.4"/>
<line class="st0" x1="398.9" y1="117.7" x2="431.2" y2="84.4"/>
<line class="st0" x1="303.6" y1="377" x2="303.6" y2="393.2"/>
<line class="st0" x1="212.2" y1="302.3" x2="179.9" y2="334.6"/>
<line class="st0" x1="175.5" y1="210.3" x2="126.2" y2="210.3"/>
<line class="st0" x1="215.4" y1="117.2" x2="180.2" y2="81.9"/>
<path class="st0" d="M599.4,407.9c34.9,0,75-8.8,75-75.2S608.1,254,608.1,254c-3.1-39.4-54-84.9-110.6-84.9
	c-49.7,0-78.4,29.2-92.4,59.3c-18.7,3.1-79.2,30.9-79.2,92c0,54.8,39.2,87.5,81.9,87.5C454.9,407.9,528,407.9,599.4,407.9z"/>
<path class="st0" d="M325.6,321.1c0-61,60.5-88.9,79.2-92c11.5-24.9,33.1-49.1,68.3-56.8c-18.2-18.8-44-32.2-71.3-32.2
	c-44,0-69.4,29.2-81.7,59.3c-16.5,3.1-70,30.9-70,92c0,54.8,34.6,87.5,72.4,87.5c6.8,0,14.2,0,22.1,0
	C332.9,364.3,325.6,344.8,325.6,321.1z"/>
<g>
	<g>
		<g>
			<line class="st1" x1="510.3" y1="305" x2="510.3" y2="449"/>
			<line class="st1" x1="447.9" y1="341" x2="572.7" y2="413"/>
			<line class="st1" x1="572.5" y1="340.5" x2="447.8" y2="412.5"/>
			<line class="st1" x1="544.3" y1="396" x2="544.3" y2="424"/>
			<line class="st1" x1="510.3" y1="416.5" x2="486.1" y2="430.5"/>
			<line class="st1" x1="476.3" y1="396" x2="476.3" y2="424"/>
			<line class="st1" x1="476.3" y1="329" x2="476.3" y2="357"/>
			<line class="st1" x1="544.3" y1="329" x2="544.3" y2="357"/>
			<line class="st1" x1="475.7" y1="357.5" x2="451.5" y2="371.5"/>
			<line class="st1" x1="533.7" y1="323.5" x2="509.5" y2="337.5"/>
			<line class="st1" x1="568.7" y1="382.5" x2="544.5" y2="396.5"/>
			<line class="st1" x1="509.7" y1="337.5" x2="485.5" y2="323.5"/>
			<line class="st1" x1="476.7" y1="396.5" x2="452.5" y2="382.5"/>
			<line class="st1" x1="534.7" y1="430.5" x2="510.5" y2="416.5"/>
			<line class="st1" x1="568.7" y1="370.5" x2="544.5" y2="356.5"/>
		</g>
		<g>
			<line class="st1" x1="431.3" y1="446" x2="431.3" y2="590"/>
			<line class="st1" x1="368.9" y1="482" x2="493.7" y2="554"/>
			<line class="st1" x1="493.5" y1="481.5" x2="368.8" y2="553.5"/>
			<line class="st1" x1="465.3" y1="537" x2="465.3" y2="565"/>
			<line class="st1" x1="431.3" y1="557.5" x2="407.1" y2="571.5"/>
			<line class="st1" x1="397.3" y1="537" x2="397.3" y2="565"/>
			<line class="st1" x1="397.3" y1="470" x2="397.3" y2="498"/>
			<line class="st1" x1="465.3" y1="470" x2="465.3" y2="498"/>
			<line class="st1" x1="396.7" y1="498.5" x2="372.5" y2="512.5"/>
			<line class="st1" x1="454.7" y1="464.5" x2="430.5" y2="478.5"/>
			<line class="st1" x1="489.7" y1="523.5" x2="465.5" y2="537.5"/>
			<line class="st1" x1="430.7" y1="478.5" x2="406.5" y2="464.5"/>
			<line class="st1" x1="397.7" y1="537.5" x2="373.5" y2="523.5"/>
			<line class="st1" x1="455.7" y1="571.5" x2="431.5" y2="557.5"/>
			<line class="st1" x1="489.7" y1="511.5" x2="465.5" y2="497.5"/>
		</g>
		<g>
			<line class="st1" x1="588.3" y1="443" x2="588.3" y2="587"/>
			<line class="st1" x1="525.9" y1="479" x2="650.7" y2="551"/>
			<line class="st1" x1="650.5" y1="478.5" x2="525.8" y2="550.5"/>
			<line class="st1" x1="622.3" y1="534" x2="622.3" y2="562"/>
			<line class="st1" x1="588.3" y1="554.5" x2="564.1" y2="568.5"/>
			<line class="st1" x1="554.3" y1="534" x2="554.3" y2="562"/>
			<line class="st1" x1="554.3" y1="467" x2="554.3" y2="495"/>
			<line class="st1" x1="622.3" y1="467" x2="622.3" y2="495"/>
			<line class="st1" x1="553.7" y1="495.5" x2="529.5" y2="509.5"/>
			<line class="st1" x1="611.7" y1="461.5" x2="587.5" y2="475.5"/>
			<line class="st1" x1="646.7" y1="520.5" x2="622.5" y2="534.5"/>
			<line class="st1" x1="587.7" y1="475.5" x2="563.5" y2="461.5"/>
			<line class="st1" x1="554.7" y1="534.5" x2="530.5" y2="520.5"/>
			<line class="st1" x1="612.7" y1="568.5" x2="588.5" y2="554.5"/>
			<line class="st1" x1="646.7" y1="508.5" x2="622.5" y2="494.5"/>
		</g>
	</g>
</g>
</svg>
