<?xml version="1.0" encoding="utf-8"?>
<!-- Generator: Adobe Illustrator 24.1.1, SVG Export Plug-In . SVG Version: 6.00 Build 0)  -->
<svg version="1.1" id="Capa_1" xmlns="http://www.w3.org/2000/svg" xmlns:xlink="http://www.w3.org/1999/xlink" x="0px" y="0px"
	 viewBox="0 0 800 600" style="enable-background:new 0 0 800 600;" xml:space="preserve">
<style type="text/css">
	.st0{fill:none;stroke:#FFFFFF;stroke-width:32;stroke-linecap:round;stroke-linejoin:round;stroke-miterlimit:10;}
	.st1{fill:none;stroke:#CBCBCB;stroke-width:32;stroke-miterlimit:10;}
	.st2{fill:none;stroke:#FFFFFF;stroke-width:32;stroke-miterlimit:10;}
	.st3{fill:none;stroke:#FFFFFF;stroke-width:8;stroke-linecap:round;stroke-miterlimit:10;}
</style>
<path class="st0" d="M614.7,301.8c-27.7,0-53.6-7.6-75.9-20.8c9.5,8.8,17.8,22.3,17.8,43.1c0,15.2-2.7,26.3-7.1,34.4
	C604,357,652,328.7,681.5,286C661.4,296.1,638.7,301.8,614.7,301.8z"/>
<path class="st0" d="M473.2,214.7c2.6,1.5,5.1,3.2,7.5,4.9c-11.5-22-18-47.2-18-73.8c0-54.8,27.6-103,69.2-130.8
	C452.2,21.2,388,84.6,378.3,165.3C417.6,166.3,453.8,188.3,473.2,214.7z"/>
<path class="st1" d="M199.8,317.2c0-61,61.5-88.9,80.5-92c11.7-24.9,33.7-49.1,69.4-56.8c-18.5-18.8-44.7-32.2-72.5-32.2
	c-44.7,0-70.6,29.2-83.1,59.3c-16.8,3.1-71.2,30.9-71.2,92c0,54.8,35.2,87.5,73.6,87.5c6.9,0,14.4,0,22.5,0
	C207.2,360.4,199.8,340.9,199.8,317.2z"/>
<path class="st2" d="M478.1,404c35.5,0,76.2-8.8,76.2-75.2S487,250.1,487,250.1c-3.2-39.4-54.9-84.9-112.4-84.9
	c-50.5,0-79.7,29.2-93.9,59.3c-19,3.1-80.5,30.9-80.5,92c0,54.8,39.9,87.5,83.3,87.5C331.2,404,405.6,404,478.1,404z"/>
<g>
	<g>
		<g>
			<line class="st3" x1="386.3" y1="300" x2="386.3" y2="444"/>
			<line class="st3" x1="323.9" y1="336" x2="448.7" y2="408"/>
			<line class="st3" x1="448.5" y1="335.5" x2="323.8" y2="407.5"/>
			<line class="st3" x1="420.3" y1="391" x2="420.3" y2="419"/>
			<line class="st3" x1="386.3" y1="411.5" x2="362.1" y2="425.5"/>
			<line class="st3" x1="352.3" y1="391" x2="352.3" y2="419"/>
			<line class="st3" x1="352.3" y1="324" x2="352.3" y2="352"/>
			<line class="st3" x1="420.3" y1="324" x2="420.3" y2="352"/>
			<line class="st3" x1="351.7" y1="352.5" x2="327.5" y2="366.5"/>
			<line class="st3" x1="409.7" y1="318.5" x2="385.5" y2="332.5"/>
			<line class="st3" x1="444.7" y1="377.5" x2="420.5" y2="391.5"/>
			<line class="st3" x1="385.7" y1="332.5" x2="361.5" y2="318.5"/>
			<line class="st3" x1="352.7" y1="391.5" x2="328.5" y2="377.5"/>
			<line class="st3" x1="410.7" y1="425.5" x2="386.5" y2="411.5"/>
			<line class="st3" x1="444.7" y1="365.5" x2="420.5" y2="351.5"/>
		</g>
		<g>
			<line class="st3" x1="307.3" y1="441" x2="307.3" y2="585"/>
			<line class="st3" x1="244.9" y1="477" x2="369.7" y2="549"/>
			<line class="st3" x1="369.5" y1="476.5" x2="244.8" y2="548.5"/>
			<line class="st3" x1="341.3" y1="532" x2="341.3" y2="560"/>
			<line class="st3" x1="307.3" y1="552.5" x2="283.1" y2="566.5"/>
			<line class="st3" x1="273.3" y1="532" x2="273.3" y2="560"/>
			<line class="st3" x1="273.3" y1="465" x2="273.3" y2="493"/>
			<line class="st3" x1="341.3" y1="465" x2="341.3" y2="493"/>
			<line class="st3" x1="272.7" y1="493.5" x2="248.5" y2="507.5"/>
			<line class="st3" x1="330.7" y1="459.5" x2="306.5" y2="473.5"/>
			<line class="st3" x1="365.7" y1="518.5" x2="341.5" y2="532.5"/>
			<line class="st3" x1="306.7" y1="473.5" x2="282.5" y2="459.5"/>
			<line class="st3" x1="273.7" y1="532.5" x2="249.5" y2="518.5"/>
			<line class="st3" x1="331.7" y1="566.5" x2="307.5" y2="552.5"/>
			<line class="st3" x1="365.7" y1="506.5" x2="341.5" y2="492.5"/>
		</g>
		<g>
			<line class="st3" x1="464.3" y1="438" x2="464.3" y2="582"/>
			<line class="st3" x1="401.9" y1="474" x2="526.7" y2="546"/>
			<line class="st3" x1="526.5" y1="473.5" x2="401.8" y2="545.5"/>
			<line class="st3" x1="498.3" y1="529" x2="498.3" y2="557"/>
			<line class="st3" x1="464.3" y1="549.5" x2="440.1" y2="563.5"/>
			<line class="st3" x1="430.3" y1="529" x2="430.3" y2="557"/>
			<line class="st3" x1="430.3" y1="462" x2="430.3" y2="490"/>
			<line class="st3" x1="498.3" y1="462" x2="498.3" y2="490"/>
			<line class="st3" x1="429.7" y1="490.5" x2="405.5" y2="504.5"/>
			<line class="st3" x1="487.7" y1="456.5" x2="463.5" y2="470.5"/>
			<line class="st3" x1="522.7" y1="515.5" x2="498.5" y2="529.5"/>
			<line class="st3" x1="463.7" y1="470.5" x2="439.5" y2="456.5"/>
			<line class="st3" x1="430.7" y1="529.5" x2="406.5" y2="515.5"/>
			<line class="st3" x1="488.7" y1="563.5" x2="464.5" y2="549.5"/>
			<line class="st3" x1="522.7" y1="503.5" x2="498.5" y2="489.5"/>
		</g>
	</g>
</g>
</svg>
