<?xml version="1.0" encoding="utf-8"?>
<!-- Generator: Adobe Illustrator 24.1.1, SVG Export Plug-In . SVG Version: 6.00 Build 0)  -->
<svg version="1.1" id="Capa_1" xmlns="http://www.w3.org/2000/svg" xmlns:xlink="http://www.w3.org/1999/xlink" x="0px" y="0px"
	 viewBox="0 0 800 600" style="enable-background:new 0 0 800 600;" xml:space="preserve">
<style type="text/css">
	.st0{fill:none;stroke:#999999;stroke-width:32;stroke-miterlimit:10;}
	.st1{fill:none;stroke:#FFFFFF;stroke-width:8;stroke-linecap:round;stroke-miterlimit:10;}
</style>
<path class="st0" d="M259,277.6c0-71,74.7-103.5,97.8-107.1c14.5-29.4,41.8-58.2,86.6-66.6C420.5,72.9,376.2,47,328.3,47
	c-58.8,0-92.8,32.9-109.4,66.7c-22.2,3.4-93.9,34.9-93.9,103.4c0,61.6,46.4,98.4,97,98.4c13,0.1,27.7,0.2,43.6,0.2
	C261.3,304.4,259,291.6,259,277.6z"/>
<path class="st0" d="M596.4,380.5c43.1,0,92.6-10.3,92.6-87.7S607.3,201,607.3,201c-3.8-46-66.5-99-136.6-99
	c-61.2,0-96.7,34.1-113.9,69.1c-23.1,3.6-97.8,36.1-97.8,107.1c0,63.8,48.3,101.9,101,101.9C418.2,380.5,508.5,380.5,596.4,380.5z"
	/>
<g>
	<g>
		<g>
			<line class="st1" x1="465.8" y1="245.4" x2="465.8" y2="405.6"/>
			<line class="st1" x1="396" y1="285.2" x2="535.1" y2="365.4"/>
			<line class="st1" x1="534.8" y1="284.6" x2="395.9" y2="364.9"/>
			<line class="st1" x1="503.2" y1="346.6" x2="503.2" y2="377.7"/>
			<line class="st1" x1="465.5" y1="369.3" x2="438.6" y2="384.9"/>
			<line class="st1" x1="427.5" y1="346.6" x2="427.5" y2="377.7"/>
			<line class="st1" x1="427.5" y1="271.7" x2="427.5" y2="302.8"/>
			<line class="st1" x1="503.2" y1="271.7" x2="503.2" y2="302.8"/>
			<line class="st1" x1="427" y1="303.6" x2="400" y2="319.2"/>
			<line class="st1" x1="491.6" y1="265.7" x2="464.6" y2="281.3"/>
			<line class="st1" x1="530.6" y1="331.5" x2="503.6" y2="347.1"/>
			<line class="st1" x1="464.9" y1="281.3" x2="437.9" y2="265.7"/>
			<line class="st1" x1="428.1" y1="347.1" x2="401.1" y2="331.5"/>
			<line class="st1" x1="492.7" y1="384.9" x2="465.8" y2="369.3"/>
			<line class="st1" x1="530.6" y1="318.1" x2="503.6" y2="302.5"/>
		</g>
		<g>
			<line class="st1" x1="377.3" y1="402.4" x2="377.3" y2="562.6"/>
			<line class="st1" x1="307.9" y1="442.3" x2="447" y2="522.6"/>
			<line class="st1" x1="446.8" y1="441.8" x2="307.8" y2="522"/>
			<line class="st1" x1="415.6" y1="503.6" x2="415.6" y2="534.7"/>
			<line class="st1" x1="377.5" y1="526.5" x2="350.5" y2="542.1"/>
			<line class="st1" x1="339.9" y1="503.6" x2="339.9" y2="534.7"/>
			<line class="st1" x1="339.9" y1="428.7" x2="339.9" y2="459.8"/>
			<line class="st1" x1="415.6" y1="428.7" x2="415.6" y2="459.8"/>
			<line class="st1" x1="338.9" y1="460.7" x2="312" y2="476.3"/>
			<line class="st1" x1="403.6" y1="422.8" x2="376.6" y2="438.4"/>
			<line class="st1" x1="442.6" y1="488.6" x2="415.6" y2="504.2"/>
			<line class="st1" x1="376.8" y1="438.4" x2="349.8" y2="422.8"/>
			<line class="st1" x1="340" y1="504.2" x2="313.1" y2="488.6"/>
			<line class="st1" x1="404.7" y1="542.1" x2="377.7" y2="526.5"/>
			<line class="st1" x1="442.6" y1="475.2" x2="415.6" y2="459.6"/>
		</g>
		<g>
			<line class="st1" x1="552.6" y1="399.2" x2="552.6" y2="559.4"/>
			<line class="st1" x1="482.9" y1="439" x2="622" y2="519.2"/>
			<line class="st1" x1="621.8" y1="438.4" x2="482.8" y2="518.7"/>
			<line class="st1" x1="590.1" y1="500.4" x2="590.1" y2="531.5"/>
			<line class="st1" x1="552.5" y1="523.1" x2="525.5" y2="538.7"/>
			<line class="st1" x1="514.4" y1="500.4" x2="514.4" y2="531.5"/>
			<line class="st1" x1="514.4" y1="425.5" x2="514.4" y2="456.6"/>
			<line class="st1" x1="590.1" y1="425.5" x2="590.1" y2="456.6"/>
			<line class="st1" x1="513.9" y1="457.4" x2="486.9" y2="473"/>
			<line class="st1" x1="578.5" y1="419.5" x2="551.6" y2="435.1"/>
			<line class="st1" x1="617.5" y1="485.2" x2="590.6" y2="500.9"/>
			<line class="st1" x1="551.8" y1="435.1" x2="524.8" y2="419.5"/>
			<line class="st1" x1="515" y1="500.9" x2="488" y2="485.2"/>
			<line class="st1" x1="579.7" y1="538.7" x2="552.7" y2="523.1"/>
			<line class="st1" x1="617.5" y1="471.9" x2="590.6" y2="456.3"/>
		</g>
	</g>
</g>
</svg>
