<?xml version="1.0" encoding="utf-8"?>
<!-- Generator: Adobe Illustrator 24.1.1, SVG Export Plug-In . SVG Version: 6.00 Build 0)  -->
<svg version="1.1" id="Capa_1" xmlns="http://www.w3.org/2000/svg" xmlns:xlink="http://www.w3.org/1999/xlink" x="0px" y="0px"
	 viewBox="0 0 800 600" style="enable-background:new 0 0 800 600;" xml:space="preserve">
<style type="text/css">
	.st0{fill:none;stroke:#FFFFFF;stroke-width:32;stroke-linecap:round;stroke-miterlimit:10;}
	.st1{fill:none;stroke:#CBCBCB;stroke-width:32;stroke-miterlimit:10;}
	.st2{fill:none;stroke:#FFFFFF;stroke-width:16;stroke-linecap:round;stroke-miterlimit:10;}
</style>
<path class="st0" d="M257.7,327.9c0-59.5,52.2-86.8,68.4-89.8c9.3-22.7,26.3-45,53.4-53.8c-19.8-21.3-49.4-33.7-81.6-30
	c-43.1,4.9-78.2,39.2-83.9,82.2c-5.2,39.4,13.5,75,43.8,94.2C257.7,329.7,257.7,328.8,257.7,327.9z"/>
<line class="st0" x1="313.5" y1="123.8" x2="313.5" y2="75"/>
<line class="st0" x1="403.9" y1="159" x2="435.5" y2="126.5"/>
<line class="st0" x1="313.5" y1="409.9" x2="313.5" y2="430.8"/>
<line class="st0" x1="221.6" y1="339.2" x2="190.1" y2="370.7"/>
<line class="st0" x1="187.9" y1="249.4" x2="139" y2="249.4"/>
<line class="st0" x1="224.7" y1="158.5" x2="190.4" y2="124"/>
<path class="st1" d="M332.4,360.4c0-59.5,59.1-86.8,77.3-89.8c11.2-24.3,32.3-47.9,66.7-55.4c-17.8-18.4-43-31.4-69.6-31.4
	c-43,0-67.8,28.5-79.8,57.9c-16.1,3-68.4,30.2-68.4,89.8c0,53.5,33.8,85.4,70.7,85.4c6.6,0,13.9,0,21.6,0
	C339.5,402.6,332.4,383.6,332.4,360.4z"/>
<path class="st0" d="M599.8,444.8c34.1,0,73.2-8.6,73.2-73.4s-64.8-76.8-64.8-76.8c-3-38.5-52.7-82.9-108-82.9
	c-48.5,0-76.6,28.5-90.2,57.9c-18.3,3-77.3,30.2-77.3,89.8c0,53.5,38.3,85.4,80,85.4C458.6,444.8,530,444.8,599.8,444.8z"/>
<line class="st2" x1="494.5" y1="409.5" x2="435.5" y2="532.5"/>
<line class="st2" x1="624" y1="348.7" x2="565" y2="471.7"/>
</svg>
