<?xml version="1.0" encoding="utf-8"?>
<!-- Generator: Adobe Illustrator 24.1.1, SVG Export Plug-In . SVG Version: 6.00 Build 0)  -->
<svg version="1.1" id="Capa_1" xmlns="http://www.w3.org/2000/svg" xmlns:xlink="http://www.w3.org/1999/xlink" x="0px" y="0px"
	 viewBox="0 0 800 600" style="enable-background:new 0 0 800 600;" xml:space="preserve">
<style type="text/css">
	.st0{fill:none;stroke:#FFFFFF;stroke-width:32;stroke-linecap:round;stroke-linejoin:round;stroke-miterlimit:10;}
	.st1{fill:none;stroke:#FFFFFF;stroke-width:32;stroke-miterlimit:10;}
	.st2{fill:none;stroke:#CBCBCB;stroke-width:32;stroke-miterlimit:10;}
	.st3{fill:none;stroke:#FFFFFF;stroke-width:16;stroke-linecap:round;stroke-miterlimit:10;}
</style>
<path class="st0" d="M635.8,333.3c-28.2,0-54.5-7.7-77.2-21.2c9.7,9,18.1,22.7,18.1,43.8c0,15.5-2.7,26.8-7.2,35
	c55.4-1.5,104.3-30.3,134.3-73.8C683.3,327.5,660.2,333.3,635.8,333.3z"/>
<path class="st0" d="M491.8,244.7c2.6,1.5,5.2,3.3,7.6,5c-11.7-22.4-18.3-48-18.3-75.1c0-55.7,28.1-104.8,70.4-133.1
	c-81.1,6.3-146.4,70.8-156.3,152.9C435.3,195.4,472.1,217.8,491.8,244.7z"/>
<path class="st1" d="M496.8,437.2c36.1,0,77.5-9,77.5-76.5s-68.5-80.1-68.5-80.1c-3.3-40.1-55.8-86.4-114.3-86.4
	c-51.4,0-81.1,29.7-95.5,60.3c-19.3,3.2-81.9,31.4-81.9,93.6c0,55.7,40.6,89,84.7,89C347.4,437.2,423.1,437.2,496.8,437.2z"/>
<path class="st2" d="M213.7,348.9c0-62.1,62.6-90.4,81.9-93.6c11.9-25.3,34.3-49.9,70.6-57.8c-18.8-19.1-45.5-32.8-73.8-32.8
	c-45.5,0-71.8,29.7-84.5,60.3c-17.1,3.2-72.4,31.4-72.4,93.6c0,55.7,35.8,89,74.9,89c7,0,14.6,0,22.9,0
	C221.2,392.9,213.7,373,213.7,348.9z"/>
<line class="st3" x1="394.2" y1="425.3" x2="340.4" y2="539.7"/>
<line class="st3" x1="527.2" y1="358.9" x2="473.4" y2="473.3"/>
</svg>
