<?xml version="1.0" encoding="utf-8"?>
<!-- Generator: Adobe Illustrator 24.1.1, SVG Export Plug-In . SVG Version: 6.00 Build 0)  -->
<svg version="1.1" id="Capa_1" xmlns="http://www.w3.org/2000/svg" xmlns:xlink="http://www.w3.org/1999/xlink" x="0px" y="0px"
	 viewBox="0 0 800 600" style="enable-background:new 0 0 800 600;" xml:space="preserve">
<style type="text/css">
	.st0{fill:none;stroke:#CBCBCB;stroke-width:32;stroke-miterlimit:10;}
	.st1{fill:none;stroke:#CBCBCB;stroke-width:16;stroke-linecap:round;stroke-miterlimit:10;}
</style>
<path class="st0" d="M259,303.6c0-71,74.7-103.5,97.8-107.1c14.5-29.4,41.8-58.2,86.6-66.6C420.5,98.9,376.2,73,328.3,73
	c-58.8,0-92.8,32.9-109.4,66.7c-22.2,3.4-93.9,34.9-93.9,103.4c0,61.6,46.4,98.4,97,98.4c13,0.1,27.7,0.2,43.6,0.2
	C261.3,330.4,259,317.6,259,303.6z"/>
<path class="st0" d="M596.4,406.5c43.1,0,92.6-10.3,92.6-87.7S607.3,227,607.3,227c-3.8-46-66.5-99-136.6-99
	c-61.2,0-96.7,34.1-113.9,69.1c-23.1,3.6-97.8,36.1-97.8,107.1c0,63.8,48.3,101.9,101,101.9C418.2,406.5,508.5,406.5,596.4,406.5z"
	/>
<line class="st1" x1="448.5" y1="393.5" x2="389.5" y2="516.5"/>
<line class="st1" x1="578" y1="332.7" x2="519" y2="455.7"/>
</svg>
