<?xml version="1.0" encoding="utf-8"?>
<!-- Generator: Adobe Illustrator 24.1.1, SVG Export Plug-In . SVG Version: 6.00 Build 0)  -->
<svg version="1.1" id="Capa_1" xmlns="http://www.w3.org/2000/svg" xmlns:xlink="http://www.w3.org/1999/xlink" x="0px" y="0px"
	 viewBox="0 0 800 600" style="enable-background:new 0 0 800 600;" xml:space="preserve">
<style type="text/css">
	.st0{fill:none;stroke:#FFFFFF;stroke-width:24;stroke-linecap:round;stroke-miterlimit:10;}
	.st1{fill:none;stroke:#FFFFFF;stroke-width:32;stroke-linecap:round;stroke-linejoin:round;stroke-miterlimit:10;}
	.st2{fill:none;stroke:#DFEDF8;stroke-width:32;stroke-miterlimit:10;}
	.st3{fill:none;stroke:#FFFFFF;stroke-width:32;stroke-miterlimit:10;}
</style>
<line class="st0" x1="341" y1="324.9" x2="309" y2="380.3"/>
<line class="st0" x1="298.4" y1="477.7" x2="266.4" y2="533.2"/>
<path class="st1" d="M371.7,236.1c-17.3,8.4-29.3,22.8-36.9,37.9c0.1,0.2,0.1,0.4,0.2,0.7c11.8-24,34.5-46.2,72.1-46.2
	c8.6,0,17.1,1.4,25.2,3.9c-4.6-15.4-7.1-31.8-7.1-48.7c0-59.9,30.9-112.5,77.6-142.9c-90.4,6.9-163,77.7-172.5,167.4
	C346.6,213.8,361.1,223.9,371.7,236.1z"/>
<path class="st2" d="M302.1,204.1c-39.9,0-62.9,24.9-74.1,50.5c-15,2.6-63.6,26.4-63.6,78.4c0,46.7,31.4,74.6,65.7,74.6
	c15.1,0,33.6,0,54,0c-9.1-12.4-14.8-28.8-14.8-48.6c0-0.2,0-0.4,0-0.5l0,0c0-52,48.6-75.8,63.6-78.4c7.4-17,20.1-33.6,39.3-42.9
	C355.5,218.3,329.7,204.1,302.1,204.1z"/>
<path class="st1" d="M670.6,336.8c-22.6,11.1-48,17.3-74.9,17.3c-2.9,0-5.8-0.1-8.7-0.2l-38.8,32.7c-1.9,12.5-5.8,21.7-11.1,28.5
	C592.2,409.3,640.1,379.7,670.6,336.8z"/>
<path class="st3" d="M547.5,387.1L493.1,433c16.1-0.4,32.9-3.9,44-18c-0.4,0-0.9,0.1-1.3,0.1C541.3,408.6,545.5,399.6,547.5,387.1z"
	/>
<path class="st3" d="M351.4,380.3l81-147c-8-2.4-16.4-3.8-24.9-3.8c-39.9,0-62.9,24.9-74.1,50.5c-15,2.6-63.6,26.4-63.6,78.4
	c0,46.7,31.4,74.6,65.7,74.6c16.9,0,38,0.1,61.3,0.1l31.5-52.8H351.4z"/>
<path class="st1" d="M547.5,387.1c-2.1,12.4-6.3,21.5-11.8,28.1c0.5,0,0.9-0.1,1.3-0.1c5.3-6.8,9.3-16,11.1-28.5L547.5,387.1z"/>
<g>
	<line class="st1" x1="460" y1="181" x2="609" y2="181"/>
	<line class="st1" x1="350.2" y1="380.3" x2="460" y2="181"/>
	<line class="st1" x1="427.1" y1="380.3" x2="350.2" y2="380.3"/>
	<line class="st1" x1="298.4" y1="596.1" x2="427.1" y2="380.3"/>
	<line class="st1" x1="492.2" y1="347.4" x2="609" y2="181"/>
	<line class="st1" x1="298.4" y1="596.1" x2="592.6" y2="348.2"/>
	<line class="st1" x1="492.2" y1="347.4" x2="592.6" y2="347.4"/>
</g>
</svg>
