<?xml version="1.0" encoding="utf-8"?>
<!-- Generator: Adobe Illustrator 24.1.1, SVG Export Plug-In . SVG Version: 6.00 Build 0)  -->
<svg version="1.1" id="Capa_1" xmlns="http://www.w3.org/2000/svg" xmlns:xlink="http://www.w3.org/1999/xlink" x="0px" y="0px"
	 viewBox="0 0 800 600" style="enable-background:new 0 0 800 600;" xml:space="preserve">
<style type="text/css">
	.st0{fill:none;stroke:#CBCBCB;stroke-width:32;stroke-linecap:round;stroke-linejoin:round;stroke-miterlimit:10;}
	.st1{fill:none;stroke:#FFFFFF;stroke-width:32;stroke-linecap:round;stroke-linejoin:round;stroke-miterlimit:10;}
</style>
<path class="st0" d="M319.8,104.6c-58.3,0-92,34.4-108.4,69.7c-22,3.6-93.1,36.5-93.1,108.1c0,64.5,46,102.9,96.1,102.9
	c22.2,0,49.2,0,79,0c-13.4-17.1-21.7-39.7-21.7-67.1c0-0.3,0-0.6,0-0.8l0,0c0-71.7,71.1-104.6,93.1-108.1
	c10.8-23.5,29.5-46.4,57.6-59.3C398,124.3,360.2,104.6,319.8,104.6z"/>
<path class="st0" d="M566.1,420.7c9.2,0,18.3,0,27.5,0c41,0,88.1-10.4,88.1-88.6c0-57.3-41.8-80.4-64.1-88.7"/>
<path class="st0" d="M566.1,420.7c9.2,0,18.3,0,27.5,0c41,0,88.1-10.4,88.1-88.6c0-57.3-41.8-80.4-64.1-88.7"/>
<path class="st0" d="M543.7,159c-20.5-12-44.7-19.6-69.8-19.6c-58.3,0-92,34.4-108.4,69.7c-22,3.6-93.1,36.5-93.1,108.1
	c0,64.5,46,102.9,96.1,102.9c34.8,0.3,81.6,0.4,132.3,0.4"/>
<line class="st0" x1="365.9" y1="405.6" x2="414.5" y2="323.1"/>
<line class="st0" x1="358.6" y1="521.8" x2="407.2" y2="439.4"/>
<g>
	<line class="st1" x1="557.3" y1="133.6" x2="666.4" y2="133.6"/>
	<line class="st1" x1="476.9" y1="342.9" x2="557.3" y2="133.6"/>
	<line class="st1" x1="533.2" y1="342.9" x2="476.9" y2="342.9"/>
	<line class="st1" x1="439" y1="569.5" x2="533.2" y2="342.9"/>
	<line class="st1" x1="580.9" y1="308.3" x2="666.4" y2="133.6"/>
	<line class="st1" x1="439" y1="569.5" x2="654.3" y2="309.2"/>
	<line class="st1" x1="580.9" y1="308.3" x2="654.3" y2="308.3"/>
</g>
</svg>
