<?xml version="1.0" encoding="utf-8"?>
<!-- Generator: Adobe Illustrator 24.1.1, SVG Export Plug-In . SVG Version: 6.00 Build 0)  -->
<svg version="1.1" id="Capa_1" xmlns="http://www.w3.org/2000/svg" xmlns:xlink="http://www.w3.org/1999/xlink" x="0px" y="0px"
	 viewBox="0 0 800 600" style="enable-background:new 0 0 800 600;" xml:space="preserve">
<style type="text/css">
	.st0{fill:none;stroke:#FFFFFF;stroke-width:32;stroke-linecap:round;stroke-miterlimit:10;}
	.st1{fill:none;stroke:#FFFFFF;stroke-width:32;stroke-miterlimit:10;}
	.st2{fill:none;stroke:#CBCBCB;stroke-width:32;stroke-miterlimit:10;}
	.st3{fill:none;stroke:#FFFFFF;stroke-width:32;stroke-linecap:round;stroke-linejoin:round;stroke-miterlimit:10;}
</style>
<g>
	<line class="st0" x1="337.8" y1="76.8" x2="337.8" y2="13"/>
</g>
<g>
	<line class="st0" x1="337.8" y1="484.7" x2="337.8" y2="420.9"/>
</g>
<g>
	<line class="st0" x1="100" y1="248.9" x2="164.3" y2="248.9"/>
</g>
<g>
	<line class="st0" x1="169.7" y1="82" x2="215.3" y2="127.3"/>
</g>
<g>
	<line class="st0" x1="215.3" y1="370.2" x2="169.7" y2="415.6"/>
</g>
<g>
	<line class="st0" x1="506" y1="82" x2="460.4" y2="127.3"/>
</g>
<path class="st1" d="M218.2,275.5c-1.5-7.8-2.3-15.8-2.3-24c0-69.2,56.1-125.3,125.3-125.3c45.7,0,85.7,24.4,107.6,61"/>
<path class="st1" d="M602.2,433c3.5,0,7.1,0,10.6,0c35,0,75.2-8.7,75.2-74.2c0-41.6-26.8-61.7-46.4-70.9"/>
<path class="st2" d="M379,168c-49.8,0-78.6,28.8-92.6,58.5c-18.8,3-79.5,30.6-79.5,90.7c0,54,39.3,86.3,82.1,86.3
	c18.9,0,42,0,67.4,0c-11.4-14.3-18.5-33.3-18.5-56.3c0-0.2,0-0.5,0-0.6l0,0c0-60.1,60.7-87.7,79.5-90.7
	c9.2-19.7,25.2-38.9,49.1-49.7C445.8,184.5,413.5,168,379,168z"/>
<path class="st1" d="M588.4,226.3c-20.5-17-48.3-29.1-77.8-29.1c-49.8,0-78.6,28.8-92.6,58.5c-18.8,3-79.5,30.6-79.5,90.7
	c0,54,39.3,86.3,82.1,86.3c27.2,0.1,63.1,0.2,102.2,0.2"/>
<line class="st0" x1="393.3" y1="492.9" x2="425.3" y2="437.5"/>
<g>
	<line class="st3" x1="590.5" y1="228" x2="676.2" y2="228"/>
	<line class="st3" x1="567.1" y1="228" x2="590.5" y2="228"/>
	<line class="st3" x1="486.7" y1="397.5" x2="567.1" y2="228"/>
	<line class="st3" x1="543" y1="397.5" x2="486.7" y2="397.5"/>
	<line class="st3" x1="524.8" y1="433" x2="543" y2="397.5"/>
	<line class="st3" x1="448.8" y1="581" x2="524.8" y2="433"/>
	<line class="st3" x1="590.7" y1="369.5" x2="676.2" y2="228"/>
	<line class="st3" x1="448.8" y1="581" x2="664.1" y2="370.2"/>
	<line class="st3" x1="590.7" y1="369.5" x2="664.1" y2="369.5"/>
</g>
</svg>
