<?xml version="1.0" encoding="utf-8"?>
<!-- Generator: Adobe Illustrator 24.1.1, SVG Export Plug-In . SVG Version: 6.00 Build 0)  -->
<svg version="1.1" id="Capa_1" xmlns="http://www.w3.org/2000/svg" xmlns:xlink="http://www.w3.org/1999/xlink" x="0px" y="0px"
	 viewBox="0 0 800 600" style="enable-background:new 0 0 800 600;" xml:space="preserve">
<style type="text/css">
	.st0{fill:none;stroke:#FFFFFF;stroke-width:32;stroke-linecap:round;stroke-linejoin:round;stroke-miterlimit:10;}
	.st1{fill:none;stroke:#CBCBCB;stroke-width:32;stroke-miterlimit:10;}
</style>
<path class="st0" d="M427.5,157.5c-0.5-5-0.7-10.2-0.7-15.3c0-59.9,30.9-112.5,77.6-142.9c-77.7,5.9-142.2,59.1-164.9,130.8"/>
<path class="st0" d="M620.1,345c20.4-13.1,38.1-30,52.1-49.7c-15.2,7.5-31.7,12.7-49.1,15.4"/>
<line class="st0" x1="386.9" y1="451.7" x2="354.9" y2="507.2"/>
<path class="st1" d="M309.2,128.2c-50.5,0-79.6,28.6-93.7,58.1c-19,3-80.4,30.4-80.4,90.1c0,53.7,39.7,85.8,83.1,85.8
	c19.1,0,42.5,0,68.3,0c-11.5-14.3-18.7-33.1-18.7-55.9c0-0.2,0-0.5,0-0.6l0,0c0-59.8,61.5-87.2,80.4-90.1
	c9.4-19.5,25.4-38.6,49.7-49.3C376.8,144.6,344.1,128.2,309.2,128.2z"/>
<path class="st0" d="M608.3,368.5c8.4-11,13.7-27.2,13.7-50.6c0-12.5-2.5-23.1-6.5-32"/>
<path class="st0" d="M548.8,219.8c-15.7-32.2-59-62.3-106.3-62.3c-50.5,0-79.6,28.6-93.7,58.1c-19,3-80.4,30.4-80.4,90.1
	c0,53.7,39.7,85.8,83.1,85.8c29.4,0.1,68.8,0.1,111.6,0.1"/>
<g>
	<line class="st0" x1="541.9" y1="221.2" x2="651" y2="221.2"/>
	<line class="st0" x1="461.5" y1="400.3" x2="541.9" y2="221.2"/>
	<line class="st0" x1="517.8" y1="400.3" x2="461.5" y2="400.3"/>
	<line class="st0" x1="423.6" y1="594.2" x2="517.8" y2="400.3"/>
	<line class="st0" x1="565.5" y1="370.7" x2="651" y2="221.2"/>
	<line class="st0" x1="423.6" y1="594.2" x2="638.9" y2="371.5"/>
	<line class="st0" x1="565.5" y1="370.7" x2="638.9" y2="370.7"/>
</g>
</svg>
