<?xml version="1.0" encoding="utf-8"?>
<!-- Generator: Adobe Illustrator 24.1.1, SVG Export Plug-In . SVG Version: 6.00 Build 0)  -->
<svg version="1.1" id="Capa_1" xmlns="http://www.w3.org/2000/svg" xmlns:xlink="http://www.w3.org/1999/xlink" x="0px" y="0px"
	 viewBox="0 0 800 600" style="enable-background:new 0 0 800 600;" xml:space="preserve">
<style type="text/css">
	.st0{fill:none;stroke:#FFFFFF;stroke-width:32;stroke-linecap:round;stroke-miterlimit:10;}
	.st1{fill:none;stroke:#FCFCFC;stroke-width:8;stroke-linecap:round;stroke-miterlimit:10;}
</style>
<path class="st0" d="M260.1,358c0-61,53.5-88.9,70-92c9.5-23.3,26.9-46.1,54.7-55.1c-17.9-19.3-43.6-31.4-72.1-31.4
	c-54.3,0-98.3,44-98.3,98.3c0,34.9,18.2,65.6,45.7,83C260.1,359.8,260.1,358.9,260.1,358z"/>
<line class="st0" x1="313" y1="145.5" x2="313" y2="100.6"/>
<line class="st0" x1="408.3" y1="184.9" x2="440.6" y2="151.6"/>
<line class="st0" x1="313" y1="444.2" x2="313" y2="460.4"/>
<line class="st0" x1="221.6" y1="369.5" x2="189.3" y2="401.8"/>
<line class="st0" x1="184.9" y1="277.5" x2="135.6" y2="277.5"/>
<line class="st0" x1="224.8" y1="184.4" x2="189.6" y2="149.1"/>
<path class="st0" d="M608.8,475.1c34.9,0,75-8.8,75-75.2s-66.3-78.7-66.3-78.7c-3.1-39.4-54-84.9-110.6-84.9
	c-49.7,0-78.4,29.2-92.4,59.3c-18.7,3.1-79.2,30.9-79.2,92c0,54.8,39.2,87.5,81.9,87.5C464.3,475.1,537.4,475.1,608.8,475.1z"/>
<path class="st0" d="M335,388.3c0-61,60.5-88.9,79.2-92c11.5-24.9,33.1-49.1,68.3-56.8c-18.2-18.8-44-32.2-71.3-32.2
	c-44,0-69.4,29.2-81.7,59.3c-16.5,3.1-70,30.9-70,92c0,54.8,34.6,87.5,72.4,87.5c6.8,0,14.2,0,22.1,0C342.3,431.5,335,412,335,388.3
	z"/>
<g>
	<g>
		<g>
			<line class="st1" x1="518.4" y1="352.2" x2="518.4" y2="496.2"/>
			<line class="st1" x1="456" y1="388.2" x2="580.8" y2="460.2"/>
			<line class="st1" x1="580.6" y1="387.7" x2="455.9" y2="459.7"/>
			<line class="st1" x1="552.4" y1="443.2" x2="552.4" y2="471.2"/>
			<line class="st1" x1="518.4" y1="463.7" x2="494.2" y2="477.7"/>
			<line class="st1" x1="484.4" y1="443.2" x2="484.4" y2="471.2"/>
			<line class="st1" x1="484.4" y1="376.2" x2="484.4" y2="404.2"/>
			<line class="st1" x1="552.4" y1="376.2" x2="552.4" y2="404.2"/>
			<line class="st1" x1="483.8" y1="404.7" x2="459.6" y2="418.7"/>
			<line class="st1" x1="541.8" y1="370.7" x2="517.6" y2="384.7"/>
			<line class="st1" x1="576.8" y1="429.7" x2="552.6" y2="443.7"/>
			<line class="st1" x1="517.8" y1="384.7" x2="493.6" y2="370.7"/>
			<line class="st1" x1="484.8" y1="443.7" x2="460.6" y2="429.7"/>
			<line class="st1" x1="542.8" y1="477.7" x2="518.6" y2="463.7"/>
			<line class="st1" x1="576.8" y1="417.7" x2="552.6" y2="403.7"/>
		</g>
	</g>
</g>
</svg>
