<?xml version="1.0" encoding="utf-8"?>
<!-- Generator: Adobe Illustrator 24.1.1, SVG Export Plug-In . SVG Version: 6.00 Build 0)  -->
<svg version="1.1" id="Capa_1" xmlns="http://www.w3.org/2000/svg" xmlns:xlink="http://www.w3.org/1999/xlink" x="0px" y="0px"
	 viewBox="0 0 800 600" style="enable-background:new 0 0 800 600;" xml:space="preserve">
<style type="text/css">
	.st0{fill:none;stroke:#FFFFFF;stroke-width:32;stroke-linecap:round;stroke-linejoin:round;stroke-miterlimit:10;}
	.st1{fill:none;stroke:#FFFFFF;stroke-width:32;stroke-miterlimit:10;}
	.st2{fill:none;stroke:#FFFFFF;stroke-width:8;stroke-linecap:round;stroke-miterlimit:10;}
</style>
<path class="st0" d="M612.5,372.3c-27.7,0-53.6-7.6-75.9-20.8c9.5,8.8,17.8,22.3,17.8,43.1c0,15.2-2.7,26.3-7.1,34.4
	c54.5-1.5,102.5-29.8,132-72.5C659.2,366.6,636.5,372.3,612.5,372.3z"/>
<path class="st0" d="M471,285.2c2.6,1.5,5.1,3.2,7.5,4.9c-11.5-22-18-47.2-18-73.8c0-54.8,27.6-103,69.2-130.8
	c-79.7,6.2-143.9,69.6-153.6,150.3C415.4,236.8,451.6,258.8,471,285.2z"/>
<g>
	<path class="st1" d="M475.9,474.5c35.5,0,76.2-8.8,76.2-75.2s-67.3-78.7-67.3-78.7c-3.2-39.4-54.9-84.9-112.4-84.9
		c-50.5,0-79.7,29.2-93.9,59.3c-19,3.1-80.5,30.9-80.5,92c0,54.8,39.9,87.5,83.3,87.5C329,474.5,403.4,474.5,475.9,474.5z"/>
	<path class="st1" d="M197.6,387.7c0-61,61.5-88.9,80.5-92c11.7-24.9,33.7-49.1,69.4-56.8c-18.5-18.8-44.7-32.2-72.5-32.2
		c-44.7,0-70.6,29.2-83.1,59.3c-16.8,3.1-71.2,30.9-71.2,92c0,54.8,35.2,87.5,73.6,87.5c6.9,0,14.4,0,22.5,0
		C205,430.9,197.6,411.4,197.6,387.7z"/>
</g>
<g>
	<g>
		<g>
			<line class="st2" x1="385.5" y1="332.1" x2="385.5" y2="496.9"/>
			<line class="st2" x1="314.1" y1="373.3" x2="456.9" y2="455.7"/>
			<line class="st2" x1="456.7" y1="372.7" x2="314" y2="455.1"/>
			<line class="st2" x1="424.4" y1="436.2" x2="424.4" y2="468.3"/>
			<line class="st2" x1="385.5" y1="459.7" x2="357.8" y2="475.7"/>
			<line class="st2" x1="346.6" y1="436.2" x2="346.6" y2="468.3"/>
			<line class="st2" x1="346.6" y1="359.6" x2="346.6" y2="391.6"/>
			<line class="st2" x1="424.4" y1="359.6" x2="424.4" y2="391.6"/>
			<line class="st2" x1="345.9" y1="392.2" x2="318.2" y2="408.2"/>
			<line class="st2" x1="412.3" y1="353.3" x2="384.6" y2="369.3"/>
			<line class="st2" x1="452.3" y1="420.8" x2="424.6" y2="436.8"/>
			<line class="st2" x1="384.8" y1="369.3" x2="357.1" y2="353.3"/>
			<line class="st2" x1="347.1" y1="436.8" x2="319.4" y2="420.8"/>
			<line class="st2" x1="413.4" y1="475.7" x2="385.7" y2="459.7"/>
			<line class="st2" x1="452.3" y1="407.1" x2="424.6" y2="391"/>
		</g>
	</g>
</g>
</svg>
