<?xml version="1.0" encoding="utf-8"?>
<!-- Generator: Adobe Illustrator 24.1.1, SVG Export Plug-In . SVG Version: 6.00 Build 0)  -->
<svg version="1.1" id="Capa_1" xmlns="http://www.w3.org/2000/svg" xmlns:xlink="http://www.w3.org/1999/xlink" x="0px" y="0px"
	 viewBox="0 0 800 600" style="enable-background:new 0 0 800 600;" xml:space="preserve">
<style type="text/css">
	.st0{fill:none;stroke:#FFFFFF;stroke-width:32;stroke-linecap:round;stroke-linejoin:round;stroke-miterlimit:10;}
	.st1{fill:none;stroke:#FFFFFF;stroke-width:16;stroke-linecap:round;stroke-linejoin:round;stroke-miterlimit:10;}
</style>
<path class="st0" d="M233.6,340.7c0-61,53.5-88.9,70-92c9.5-23.3,26.9-46.1,54.7-55.1c-17.9-19.3-43.6-31.4-72.1-31.4
	c-54.3,0-98.3,44-98.3,98.3c0,34.9,18.2,65.6,45.7,83C233.6,342.5,233.6,341.6,233.6,340.7z"/>
<line class="st0" x1="286.5" y1="128.2" x2="286.5" y2="83.3"/>
<line class="st0" x1="381.8" y1="167.6" x2="414.1" y2="134.3"/>
<line class="st0" x1="286.5" y1="426.9" x2="286.5" y2="443.1"/>
<line class="st0" x1="195.1" y1="352.2" x2="162.8" y2="384.5"/>
<line class="st0" x1="158.4" y1="260.2" x2="109.1" y2="260.2"/>
<line class="st0" x1="198.3" y1="167.1" x2="163.1" y2="131.8"/>
<path class="st0" d="M308.5,371c0-61,60.5-88.9,79.2-92c11.5-24.9,33.1-49.1,68.3-56.8c-18.2-18.8-44-32.2-71.3-32.2
	c-44,0-69.4,29.2-81.7,59.3c-16.5,3.1-70,30.9-70,92c0,54.8,34.6,87.5,72.4,87.5c6.8,0,14.2,0,22.1,0
	C315.8,414.2,308.5,394.7,308.5,371z"/>
<path class="st0" d="M582.3,457.8c34.9,0,75-8.8,75-75.2S591,303.9,591,303.9c-3.1-39.4-54-84.9-110.6-84.9
	c-49.7,0-78.4,29.2-92.4,59.3c-18.7,3.1-79.2,30.9-79.2,92c0,54.8,39.2,87.5,81.9,87.5C437.8,457.8,510.9,457.8,582.3,457.8z"/>
<g>
	<g>
		<g>
			<line class="st1" x1="493.2" y1="332.9" x2="493.2" y2="476.9"/>
			<line class="st1" x1="430.8" y1="368.9" x2="555.6" y2="440.9"/>
			<line class="st1" x1="555.4" y1="368.4" x2="430.7" y2="440.4"/>
			<line class="st1" x1="527.2" y1="423.9" x2="527.2" y2="451.9"/>
			<line class="st1" x1="493.2" y1="444.4" x2="469" y2="458.4"/>
			<line class="st1" x1="459.2" y1="423.9" x2="459.2" y2="451.9"/>
			<line class="st1" x1="459.2" y1="356.9" x2="459.2" y2="384.9"/>
			<line class="st1" x1="527.2" y1="356.9" x2="527.2" y2="384.9"/>
			<line class="st1" x1="458.6" y1="385.4" x2="434.4" y2="399.4"/>
			<line class="st1" x1="516.6" y1="351.4" x2="492.4" y2="365.4"/>
			<line class="st1" x1="551.6" y1="410.4" x2="527.4" y2="424.4"/>
			<line class="st1" x1="492.6" y1="365.4" x2="468.4" y2="351.4"/>
			<line class="st1" x1="459.6" y1="424.4" x2="435.4" y2="410.4"/>
			<line class="st1" x1="517.6" y1="458.4" x2="493.4" y2="444.4"/>
			<line class="st1" x1="551.6" y1="398.4" x2="527.4" y2="384.4"/>
		</g>
	</g>
</g>
</svg>
