<?xml version="1.0" encoding="utf-8"?>
<!-- Generator: Adobe Illustrator 24.1.1, SVG Export Plug-In . SVG Version: 6.00 Build 0)  -->
<svg version="1.1" id="Capa_1" xmlns="http://www.w3.org/2000/svg" xmlns:xlink="http://www.w3.org/1999/xlink" x="0px" y="0px"
	 viewBox="0 0 800 600" style="enable-background:new 0 0 800 600;" xml:space="preserve">
<style type="text/css">
	.st0{fill:none;stroke:#999999;stroke-width:32;stroke-linecap:round;stroke-linejoin:round;stroke-miterlimit:10;}
	.st1{fill:none;stroke:#FFFFFF;stroke-width:16;stroke-linecap:round;stroke-linejoin:round;stroke-miterlimit:10;}
</style>
<path class="st0" d="M243.7,361.1c0-63,70.3-91.8,92-95c13.4-25.7,38.5-50.7,79.4-58.7c-21.2-19.4-51.1-33.3-82.9-33.3
	c-51.1,0-80.7,30.2-95,61.2c-19.2,3.2-81.4,31.9-81.4,95c0,56.6,40.2,90.4,84.2,90.4c7.9,0,16.5,0,25.7,0
	C252.1,405.7,243.7,385.6,243.7,361.1z"/>
<path class="st0" d="M561.9,450.7c40.6,0,87.1-9.1,87.1-77.7s-76.9-81.3-76.9-81.3c-3.7-40.7-62.8-87.7-128.5-87.7
	c-57.7,0-91.1,30.2-107.4,61.2c-21.7,3.2-92,31.9-92,95c0,56.6,45.6,90.4,95.2,90.4C393.9,450.7,479,450.7,561.9,450.7z"/>
<g>
	<g>
		<g>
			<line class="st1" x1="468.4" y1="353.3" x2="468.4" y2="502"/>
			<line class="st1" x1="404" y1="390.5" x2="532.8" y2="464.8"/>
			<line class="st1" x1="532.6" y1="390" x2="403.9" y2="464.3"/>
			<line class="st1" x1="503.5" y1="447.3" x2="503.5" y2="476.2"/>
			<line class="st1" x1="468.4" y1="468.4" x2="443.4" y2="482.9"/>
			<line class="st1" x1="433.3" y1="447.3" x2="433.3" y2="476.2"/>
			<line class="st1" x1="433.3" y1="378.1" x2="433.3" y2="407"/>
			<line class="st1" x1="503.5" y1="378.1" x2="503.5" y2="407"/>
			<line class="st1" x1="432.7" y1="407.5" x2="407.7" y2="422"/>
			<line class="st1" x1="492.6" y1="372.4" x2="467.6" y2="386.9"/>
			<line class="st1" x1="528.7" y1="433.3" x2="503.7" y2="447.8"/>
			<line class="st1" x1="467.8" y1="386.9" x2="442.8" y2="372.4"/>
			<line class="st1" x1="433.7" y1="447.8" x2="408.7" y2="433.3"/>
			<line class="st1" x1="493.6" y1="482.9" x2="468.6" y2="468.4"/>
			<line class="st1" x1="528.7" y1="420.9" x2="503.7" y2="406.5"/>
		</g>
	</g>
</g>
</svg>
