<?xml version="1.0" encoding="UTF-8" standalone="no"?><svg xmlns="http://www.w3.org/2000/svg" viewBox="0 0 160 71.2"><metadata/><path d="M29.6 4.4h.3v.5l-.3-.5zM79 4.9c-.2-.2 0-.5.1-.4.2.1 0 .5-.1.4zM75.3 4.6c.2 0 .4 0 .6.2a3 3 0 01-1.6.3c.2-.4.7-.3 1-.3v-.2zM72.3 6.5l.6-.4v.4h-.6zM28.3 6.3h.5c.1.5.6.8.6 1.3l-.5-.4v-.4c-.3.1-.2.5-.3.8-.3-.4-.3-.9-.3-1.3zM29.2 8.2c.4-.1.4.4.1.4-.3.1-.3-.3 0-.4zM60.7 8.3c.4-.2 0 .5 0 0zM24 9.5c.3-.2.6 0 .3.2-.1.3-.5 0-.2-.2zM23 10.4c-.1-.1 0-.4.2-.4.1.2 0 .5-.2.4zM23.3 11.4c0-.3.1-.5.3-.7.3.3 0 .5-.3.7zM22.8 11.2c-.2 0-.2-.4 0-.4s.2.4 0 .4zM29.8 13.3l.4-.3.1 1.1-.5-.8zM22.1 13.7c0-.2.3-.5.5-.4 0 .3-.3.5-.5.4zM28.8 13.4c.1-.2.5 0 .3.2-.1.2-.5 0-.3-.2zM20.7 14.8c0-.2.1-.4.4-.4v.5h-.4zM21.6 14.5v.9c-.1 0-.3 0-.4.2 0-.5.2-.8.4-1.1zM22 14.8c.2 0 .2.1 0 .3v-.3zM30.4 14.8c.2 0 .2.2 0 .3v-.3zM31.5 15.1c0 .2.2.3.3.5l-.8.4.3-.3c0-.2 0-.4.2-.6zM20.4 17.4l.4-1v.6c0 .2-.2.3-.4.4zM31.4 17h.4l.4.7-.4.2v-.3l-.3-.2V17zM20 17.3l.4.2c-.1.3 0 .5.2.6H20l-.3.4.2-.5v-.7zM52.3 17.5c.1.1.1.1 0 0zM32.5 18l.4.1-.2.4-.2-.6zM31.3 18.1l1 .1-.2 1-.8-1zM18.2 20c0 .1.3 0 .3.2l-.4.5v-.6zM51.3 20.7c.2-.3.4-.5.7-.6-.1.3-.3.6-.7.6zM140.3 20.4v.3c-.2 0-.2-.2 0-.3zM100.6 20.8c.3-.2.4.4.1.4-.2 0-.2-.3-.1-.4zM32.4 20.8c.3 0 .8.5.1.3.3.3.3.6.1 1H32c0-.5.3-.9.4-1.3zM53.2 22zM32.3 22.5l.4-.3.5.2v.6l-.6-.4-.3.2v-.3zM82.8 24.1l.6-.5v.6l-.6-.1zM33.2 23.8l.3.3.4-.2-.8.7v-.8zM82.3 24.8c0-.3 0-.7.3-.8 0 .3-.2.5-.3.8zM101 24h.4c-.3.4-.3.8-.3 1.2-.3-.3-.1-.8-.2-1.1zM33.4 26c.2 0 .5.2.3.5-.1.2 0 .3.2.5h-.3l-.2-1zM43.3 26.2h.4v.3h-.5l.1-.3zM44 26.5c0-.2.2-.3.3-.4v.5l-.3-.1zM92.2 26.4l.4.2c0 .4-.3.7-.5 1-.3-.4 0-.8 0-1.2zM99 27.2l.3-.3.4.1-.1.4-.6-.2zM54.5 28l.5-.2v.4a.7.7 0 00-.5-.2zM55.4 27.9c.2 0 .3 0 .2.2-.2 0-.3 0-.2-.2zM84.9 28zM83.4 29.1l.2-.9c0 .2.2.4.3.5l-.5.4zM101.1 28.7c.2 0 .3 0 .2.2-.2 0-.2 0-.2-.2zM46.5 28.8c.4 0 0 .5-.2.3-.3 0 0-.3.2-.3zM136.8 30c0-.4.2-.8.6-.7l-.1.5-.5.1zM39.3 29.5c.2.1-.1.6-.3.5-.1-.2 0-.4.3-.5zM85.2 29.7c.4 0 0 .6-.2.5-.1-.2 0-.4.2-.5zM99 29.8c.2 0 .2 0 0 0zM53 30c.3 0 .1.4 0 .4-.3 0-.1-.3 0-.3zM38.5 30.7l.2-.5 1 .3c-.4 0-.8 0-1.2.2zM136.5 31c.2-.2.5 0 .3.2-.1.2-.4 0-.3-.2zM52.5 31.6l.4-.3.4.4-.6.1v.5l-.2-.7zM30.5 31.6zM12.9 32.2c.2 0 .2.2 0 .3-.2-.1-.2-.2 0-.3zM27.2 32.8c.2-.2.3-.4.6-.5h.6a3 3 0 01-1.2.5zM85.3 32.3c.1-.1.5 0 .3.2-.1.2-.4 0-.3-.2zM86 32.4c0 .1 0 .1 0 0zM52.5 33.5c0-.3.3-.5.5-.6l.2.3c-.3-.2-.5 0-.5.3h.4c0 .5-.5 1-.1 1.2v.2c-.3-.4-.6-.8-.5-1.4zM29.2 33zM28.8 33.7c.1-.2.5 0 .3.2-.1.2-.5 0-.3-.2zM99.7 34c.1-.2.5 0 .3.2-.1.2-.5 0-.3-.2zM22.5 35c.3-.4 1-.8 1.6-.7v.5c-.6.1-1 .4-1.6.3zM25.2 34.5c.2.1.2.2 0 .3-.2-.1-.2-.2 0-.3zM99.8 35c.2 0 .3 0 .2.3-.2 0-.3 0-.2-.2zM83.1 35.4h.5c-.2 0-.3.2-.5.4l.6.3-.2.5-.2-.4-.4-.2.2-.6zM21.4 35.8l.3-.4v.4h-.3zM24.3 35.6c.2-.2.4.1.2.2-.2.2-.4-.1-.2-.2zM135.2 35.8c.2-.2.5 0 .4.2-.2.1-.5 0-.4-.2zM53.3 36.9c0-.3 0-.6.2-.8 0 .3 0 .5-.2.8zM112.1 37.5c-.1-.2.1-.5.3-.4.1.2 0 .5-.3.4zM112 39c.2-.6.9-.4 1.2 0H112zM100.6 40.4c.1-.2.5 0 .3.1 0 .2-.4 0-.3-.1zM9.2 41.9c0-.2.2-.5.4-.4 0 .2-.2.4-.4.4zM11.5 41.6h.6v.5l-.2-.4-.4.3v-.4zM99.3 42.6c0-.3.2-.6.4-.9l-.2.5.2.3a46.2 46.2 0 01.5 0h-1zM100.7 43.2l.3-.3v.3h-.3zM115.1 43.4c.5 0 .8.2 1 .5l-1-.5zM100.6 43.9c.1-.3.5-.4.6 0h-.6zM115.3 44.1c.5 0-.2.4 0 0zM100.9 44.2c.2 0 .4.4.1.4-.2 0-.4-.3-.1-.4zM113.4 44.6c.4-.2 1-.2 1.1.4l-1.1-.4zM115.2 45.2l1.5.7c-.3.3-.5.7-.9.6l.2-.5-.9-.3v-.5zM71.6 45.6l.2-.3.3.4h-.5zM118.5 45.7h.9c-.3.2-.6.1-1 0zM120.7 46.1l.7-.5.7.5c-.3 0-.5.1-.7.3 0-.4-.4-.2-.7-.3zM101.3 45.8c.2-.2.4.2.2.3-.2.2-.4-.2-.2-.3zM117.6 46c.6 0 1 .1 1.6.3-.6.3-1.2.2-1.6-.2zM118.3 47.3c.4 0 .7 0 1 .2-.4 0-.7.1-1-.2zM101 47.9c.2-.2.5.1.4.3-.2 0-.4-.2-.3-.3zM7 48.4c-.1-.3.3-.4.4-.2 0 .3-.4.5-.4.2z" style="fill:#fcfcfc"/><g><path d="M27.5.1c.5.3 1-.4 1.5 0l1 1.5-.3.3.4 1.3c.1.5.5 1 .5 1.4h-.3c.3.6.7 1.1.6 1.8a10 10 0 00-.4-.3c0 .3.3.4.5.6l.1.9h-.5v-.4c.2-.2.2-.4.2-.6l-.3.3-.2-1h.3a9 9 0 00-.5-.7c0 .3-.2.6 0 1 .1 1 .4 2 .7 3h-.4c0-.4-.2-.8-.6-1l.4-.6a38 38 0 00-.8-1.1l.3 1c0 .3-.3.8.2 1l-.3.1.1.4c.2 0 .5.3.2.5h-.4v-.3h-.3l.3.8-.3.2c0 .2.1.4.4.4l-.3.3.5 1c.1.2-.1.4-.3.6l.6.4.3-.6c.2.4.4 1 0 1.3.2.1.5.3.5 0l.4.8-.8-.5c.2.6.9 1 1.4 1.3a3 3 0 00-.5-1v-1l.3.5.2-.3.1.4c-.4 0-.2.5-.2.8l.3-.4c.5.3.7 1 .7 1.5-.1.3-.3.6-.3 1 .2 0 .4 0 .5.2.2.5.3 1 .3 1.6l-.3.3.4 1c0 .3-.2.5-.4.8.3.1.6.2.5.6.2.4 0 1 .5 1.2 0 .3-.2.5-.3.8h.2v-.6c.3 1 .6 1.8.5 2.8.2.4.3.8.3 1.3l-.3.2c.2.5.8.8 1.2 1-.7.1-1.4.5-2.1.4-1.4 0-2.4.9-3.6 1.4-.3-.2.2-.5.4-.5v-.4l.3-.2-.7-3.4c-.2-.7-.1-1.3-.2-2l-.4-2.5c0-.3.2-.5.4-.8-.2-.1-.5-.2-.5-.5-.1-.5 0-1-.2-1.5-.1-.4.2-.6.2-1l-.4-.2.3-.4c-.1-.2-.4-.3-.5-.6h.3c-.2-.5-.4-1-.2-1.4l-.2-.3v-1c-.3 0-.5-.4 0-.3-.2-.3-.3-.5-.3-.8h.3l-.7-1.4.2-.3c0-.3-.3-.5-.5-.7.5-.4 0-1.1-.2-1.6l.2-.4L27 7c-.3.6-.4 1.4-1.1 1.4l.4.3c-.2 0-.4.2-.5.3l.3.1-.6.5c-.3 1.7-1.7 2.9-2.1 4.5-.3.6-.8 1.1-.9 1.8-.6.5-.9 1.3-1.3 2-.2.5-.5.9-.6 1.4 0 .4-.4.6-.6.9l-.2 1.2-.7 1-2.3 3.6c.1.3.2.5.1.8l-.6.2c0 .7-.8 1.2-.8 2H15c0 .5-.3.8-.5 1.2l-2.2 3.6c-.2.3-.1.7-.3 1.1l-.6.8.3.1c-.2.6-.6 1-1 1.6-.3.5-.2 1.3-.8 1.7-.2.2-.2.6-.5.7-.5.3-.5 1-.4 1.4l-.7.6h.2l.6.4-.6.2h-.4l.1.2h.4c0 .2 0 .5-.3.6l-.2-.4-.3.6c.2.5.1 1 0 1.5l-.2-.3-.3.2v.7l-.2-.6-.3.4h.4l-.4.5.3-.1.1.4c-.4.2-.6.6-.6 1l.1.3h-.4l.2.4H6l.5.4v.7a2 2 0 00-.5 0l.1.7-.3-.1.1.6-.5 1v.7A6 6 0 014 54.3c-.4.5-.9.7-1.4.8-.8-.8-1.6-1.5-2.2-2.5-.3-.5.2-1 .4-1.6.3-.5-.2-1 0-1.6 0-.5.3-1 .4-1.4.3-1.4 1.4-2.4 1.6-3.7h.4c0-.3 0-.5.2-.7l3.6-6-.3-.3c.4 0 .6-.3.7-.6l.4.1-.3-.2.4-.3V36l.5-.4H8c.5-.4.8-1 1.1-1.6.6-1.1 1.1-2.3 2-3.2l.4.7c.3-.2.5-.5.7-.9h-.7l.2-.4h.2l.4.3v-.6l-.4.2-.1-.2c0-.4.1-.8.3-1.1.2.3.3.1.5-.1v.4c.3-.2.5-.3.6-.6l-.2-.2.7-1.1-.3.2v-.7c.5-.4.7-1 1-1.5h.5l-.2-.4c.3-.2.4-.4.5-.7.2-.4.7-.6.8-1l.2-1.5.6.2.4-.5-.3-.2c.6-1.2 1.2-2.4 2-3.4.3-.3.6-.3.9-.4-.3 0-.5-.3-.4-.6.3-.6.8-.9 1.1-1.4l-.5.4c.3-.5.5-1 .6-1.7l.2.3c0-.5.6-.3.8-.7h-.2c-.2 0-.3.2-.5.4l.3-.9.9-.2v-.5c0-.2 0-.4-.2-.6.2-.6.4-1.2.8-1.7.3-.3.4-.8.5-1.2.2-.5.5-.9.9-1.2h-.3c.4-.6.5-1.3 1-1.7l.8-1.8c.3-.4.2-1-.2-1.2.5-.4.4-1.1.4-1.7h.4l.2-.5c.5 0 .9-.2 1-.7m2.1 4.3l.4.5v-.5h-.4m-1.3 1.9c0 .4 0 1 .3 1.3 0-.3 0-.7.3-.8v.4l.5.4c0-.5-.5-.8-.6-1.2l-.5-.1m-2.3.1c0 .5.4-.2 0 0m-.5.4c-.2.1-.3.2 0 .3v-.3m3.7 1.4c-.2 0-.2.5.1.4.3 0 .3-.5 0-.4M24 9.5c-.3.2 0 .5.2.2.3-.2 0-.4-.2-.2m-1 .9c.1 0 .2-.2.1-.4-.2 0-.3.3-.2.4m.3 1c.2-.2.6-.4.3-.7-.2.2-.2.4-.3.7m-.5-.2c.2 0 .2-.4 0-.4s-.2.4 0 .4m7 2l.5 1-.1-1.2-.4.3m-7.7.4c.2 0 .6-.1.5-.4-.2-.1-.5.2-.5.4m6.7-.3c-.2.1.2.4.3.2.2-.2-.2-.4-.3-.2m-8 1.4h.3v-.4c-.3 0-.3.2-.4.4m1-.3c-.3.3-.5.6-.5 1l.4-.1v-1m.4.4v.3c.2-.2.2-.3 0-.3m8.4 0v.3c.2-.1.2-.2 0-.3m1 .3l-.1.6-.3.3c.3 0 .5-.3.8-.4a24 24 0 00-.3-.5m-11.1 2.3l.5-.4v-.5l-.5.9m11-.4v.4l.4.2v.3l.4-.2-.4-.7h-.4m-11.4.3v.7l-.2.5.3-.3.5-.1c-.2-.1-.3-.3-.2-.6l-.4-.2m12.5.6l.2.6.2-.4-.4-.2m-1.6.2c-.2.5.4 0 0 0m.4 0l.8 1.1.2-1h-1m-11 .7c.1.1.1.1 0 0m11.8.9c-.1 0 0 .5.2.3.2-.1 0-.5-.2-.3m-14 .3v.6l.4-.5-.3-.1m14.2.7c-.1.4-.5.8-.4 1.3h.6c.2-.4.2-.7 0-1 .6.2 0-.3-.2-.3m0 1.7l-.1.3.3-.2.6.4v-.6l-.5-.2-.4.3m.9 1.3v.8l.7-.7-.4.2-.3-.3m.2 2.2l.2 1h.3c-.1-.2-.3-.3-.2-.5.2-.3 0-.4-.3-.5m-19 1.3c-.1 0-.2.3 0 .3s.3-.3 0-.3m.2.7c.1 0 .1 0 0 0M13 32.2c-.2 0-.2.2 0 .3.2-.1.2-.2 0-.3m-2.7 1.7c-.2.2-.2.2 0 .3V34M5.8 47.5c-.2.4.5 0 0 0m-.1.4c-.2.4.5 0 0 0m-.2.6v.4c.1 0 .2-.1.2-.3h.4l-.2-.1h-.4zM33.8 32.9c.3-.8 1.3-.5 1.9-.8l-.1.4.3.2c0 .2-.2.4-.4.5l.2.3c0 .3 0 .6.2.8l.1-.7.3 1.6-.3 1 .2.5v-.3c.3.1.6.2.5.5l.3 2.5.4 3.7c.3 1.4.6 2.9.6 4.4.2.1.2.4.2.6l.3 2.5c.1.6 0 1.2-.5 1.6-.5.5-1 1-1.7 1.3l-.4-.2-.2.6c-.7-.8-1.7-1.4-2.3-2.3-.3-.4-.1-1.1-.8-1.1v-3.9c-.1-.6-.3-1.1-.2-1.7 0-.4-.3-.8 0-1.1.2-.4 0-.9-.2-1.2v-.5c0-.9 0-1.7-.2-2.5s-.5-1.7-.5-2.6c0-1.1 0-2.3-.3-3.4.6-.1 1-.5 1.4-.9.4.2.8.3 1.2.2zM141.4 62.4l1.2-2h1l-1.6 2h-.6zM2.5 60.8H4L6.4 69h-1l-.7-2.5h-3L1 69H0l2.5-8.2M2 65.7h2.6c-.5-1.5-.8-3-1.3-4.3l-1.3 4.3zM41 60.8h4.7v.8h-3.9v2.7h2.8v.8h-2.8v3H46v.9h-5v-8.2zM69.7 60.8h.9V69h-.9v-8.2zM79 60.8h.8L80 69h-.6l-.2-.7c-.4.5-1 .8-1.8.8-1 0-1.8-.8-2-1.8-.3-1-.3-2.3.3-3.3.6-1.2 2.6-1.4 3.4-.3v-2.9m-2.5 3.3c-.5.7-.5 1.6-.5 2.4 0 .6.2 1.3.8 1.7.8.4 1.9 0 2.2-.7v-3c-.2-.2-.4-.5-.8-.7-.5-.3-1.3-.2-1.7.3zM90.3 60.8h1.4l2.3 6.9 2.3-6.9h1.3V69h-.9V62l-.5 1.2-2 5.7h-.5l-1.8-5.2-.7-1.7V69h-.9v-8.2zM29.2 60.8h1v1h-1v-1zM128.1 60.8h.9V69h-.9v-8.2zM105 61.2h.8V63h1.3v.7h-1.3v3.7c0 .2 0 .5.2.7.3.2.8 0 1.2 0v.8c-.6 0-1.2.2-1.8-.1-.3-.2-.5-.6-.5-1v-4.1h-.9V63h1v-2zM52 61.2h.8V63h1.4v.7h-1.4v3.4c0 .3 0 .7.2 1 .3.2.8.1 1.2 0v.8c-.6 0-1.2.2-1.8-.1-.3-.2-.5-.6-.4-1v-4.1h-1V63h1v-2zM60.9 61.2h.8V63h1.4v.7h-1.4v3.5c0 .3 0 .7.2 1h1.2v.7c-.6 0-1.3.2-1.8-.2-.4-.2-.4-.7-.4-1v-4H60V63h.9v-2zM10.6 63.4c.4-.3.8-.6 1.3-.5v.7l-.9.2c.5.8.5 2-.3 2.7-.6.6-1.4.6-2.2.5-.3-.2-.7.1-.7.5.2.2.4.3.7.3.9.1 1.8.1 2.6.5 1 .3 1 1.8.2 2.3-.4.3-1 .4-1.6.6-.4.1-.8 0-1.3-.1-.4-.1-.9-.2-1.3-.5s-.4-1-.3-1.4c.2-.4.5-.5.8-.7-.3-.2-.6-.5-.6-.9 0-.5.4-.7.8-1-1-.8-1-2.8.3-3.4.8-.4 1.8-.3 2.5.2m-1.8.3c-.9.1-1.2 1.2-.8 2 .4 1 2 1 2.5-.1.1-.5 0-1-.2-1.5-.3-.4-1-.6-1.5-.4m-.6 5.1c-.3.1-.7.4-.6.8 0 .4.4.7.8.8a4 4 0 002.2-.2c.5-.2.6-1 0-1.3a4 4 0 00-2.4-.1zM139.5 63.4a2 2 0 011.3-.6v.8l-.9.1c.3.7.5 1.4.2 2.1-.2.7-.9 1.1-1.5 1.2h-1.4c-.2 0-.5.2-.5.5.1.2.4.3.6.3 1 .2 2 0 2.8.5.6.3.8 1.1.6 1.7-.2.6-.9.9-1.5 1-.6.1-1.2.4-1.8.1-.4-.1-1-.2-1.4-.5-.3-.4-.4-1-.3-1.4.2-.4.5-.5.9-.7-.4-.2-.7-.5-.7-.9 0-.5.4-.7.7-1-.8-.8-.9-2.3 0-3.1.8-.7 2-.7 3-.1m-2.1.3c-1 .5-1 2.2 0 2.6.6.1 1.2 0 1.6-.3.4-.4.4-1.1.2-1.6-.3-.7-1.2-1-1.8-.7m-.4 5.1c-.3.1-.6.4-.6.8s.3.6.7.7c.6.2 1.3.2 2 0 .4 0 .7-.3.7-.7 0-.5-.4-.7-.8-.8-.6-.1-1.3-.2-2 0zM13 63.7c.7-1 2.6-1 3.3 0 .5.8.6 1.7.6 2.5h-3.8c0 .8.2 1.7 1 2 .9.4 1.9 0 2.3-1l.6.5c-.3.5-.7 1-1.3 1.2-.8.3-1.8.3-2.5-.3s-.9-1.4-1-2.2c0-1 .1-2 .7-2.7m.7.4c-.3.4-.4.9-.5 1.4h3c-.1-.5-.2-1-.5-1.4-.5-.6-1.5-.6-2 0zM18 63h.9v.9c.6-.5 1.3-1 2-1 .8 0 1.4.7 1.4 1.4V69h-.8v-4.2c0-.4 0-1-.5-1-.8-.3-1.6.2-2 .8V69h-1v-6zM24.7 63.2c1.1-.6 2.8-.1 3.2 1.1.3.4-.4.4-.7.5-.1-.3-.3-.7-.7-1-.6-.3-1.5 0-1.8.6-.4.8-.4 1.9-.2 2.8.1.6.7 1.2 1.4 1.2s1.2-.6 1.6-1.2l.7.4c-.3.5-.7 1-1.3 1.3-.9.4-2.1.2-2.8-.6-.5-.7-.6-1.7-.6-2.6 0-1 .4-2 1.2-2.5zM29.3 63h.8v6h-.8v-6zM31.6 64.2c.6-1.3 2.5-1.6 3.6-.8.7.5.6 1.5.6 2.3 0 1-.1 2.2.1 3.3H35v-.8c-.7.7-1.8 1.1-2.7.7-1-.5-1.1-2-.4-2.7.9-.7 2-1 3-1.2 0-.4 0-.9-.3-1.1-.8-.5-1.9 0-2.3.7l-.7-.4m1.2 2.3c-.3.2-.6.7-.5 1.1 0 .5.5.7 1 .7.6 0 1.1-.5 1.6-.9v-1.6c-.7.2-1.4.3-2 .7zM47.3 63.2c1.1-.5 2.5-.1 3.2.8l-.6.5c-.4-.6-1.2-1-2-.8-.5.2-.7 1-.2 1.4.8.5 1.8.4 2.5 1 .8.7.6 2.1-.3 2.6-1.1.7-2.8.3-3.6-.7l.7-.6c.5.7 1.3 1.1 2 1 .7-.2 1.1-1 .6-1.5-.7-.7-2-.5-2.7-1.3-.6-.7-.4-2 .4-2.4zM54.9 64.2c.6-1.3 2.4-1.6 3.6-.8.7.5.6 1.5.6 2.3 0 1-.1 2.2.1 3.3h-.9v-.8c-.7.7-1.8 1.1-2.7.7-1-.4-1.2-2-.4-2.7.8-.7 2-1 3-1.2 0-.4 0-.8-.3-1-.8-.6-1.9-.2-2.3.6l-.7-.4m1 2.5c-.5.4-.4 1.3.2 1.5.8.3 1.5-.3 2.1-.8v-1.6c-.8.2-1.7.3-2.3 1zM63.8 64.2c.6-1.3 2.5-1.6 3.6-.8.7.5.6 1.5.6 2.3l.1 3.3h-.9v-.8c-.7.7-1.8 1.1-2.7.7-1-.5-1.1-2-.3-2.7.8-.8 2-1 3-1.2 0-.4 0-.9-.5-1.1-.7-.5-1.8 0-2.2.7l-.7-.4m1.2 2.3c-.4.3-.6.8-.5 1.2.1.5.6.7 1 .6.7 0 1.2-.5 1.7-.9v-1.6c-.8.2-1.5.3-2.2.7zM81.7 63.8c.8-1.1 2.7-1.1 3.5 0 .4.7.5 1.6.5 2.4h-3.8c0 .7.2 1.6 1 2 .8.4 1.9 0 2.3-.9l.6.4c-.6 1.3-2.3 1.7-3.5 1.1-.8-.4-1.1-1.3-1.2-2.2 0-1 0-2 .6-2.8m.7.3c-.3.4-.4 1-.5 1.4h3c-.1-.5-.2-1-.6-1.4-.5-.6-1.5-.5-2 0zM99.6 63.8c.8-1.1 2.7-1.1 3.4 0 .5.7.6 1.6.6 2.4h-3.8c0 .8.3 1.7 1 2 1 .4 2 0 2.3-.9l.7.4c-.4.5-.8 1-1.4 1.2-.8.3-1.8.3-2.5-.3s-.9-1.4-.9-2.2c0-1 0-1.9.6-2.6m.8.3c-.4.3-.5.9-.5 1.4h2.8c0-.5 0-1-.4-1.4-.5-.6-1.4-.6-2 0zM108.3 63.8c.8-1.1 2.6-1.1 3.4 0 .5.7.6 1.6.6 2.4h-3.8c0 .7.2 1.7 1 2 .8.4 1.9 0 2.3-.9l.6.4c-.3.5-.7 1-1.3 1.2-.8.3-1.9.3-2.6-.3-.6-.6-.8-1.4-.8-2.1 0-1 0-2 .6-2.7m.6.4c-.3.3-.3.8-.4 1.3h2.9c0-.5-.1-1-.5-1.4-.5-.6-1.5-.6-2 0zM114.5 63c.9-.2 1.9 0 2.5.6.6.5.8 1.3.8 2a4 4 0 01-.5 2.5c-.8 1.3-3 1.3-3.8.1-.6-.9-.7-2-.5-3 .1-1 .7-1.8 1.5-2.1m.3.7c-.6.2-1 1-1 1.6 0 .8 0 1.6.3 2.3.5.8 1.8.9 2.4.2.4-.5.5-1.2.5-1.8 0-.7 0-1.4-.5-1.9-.4-.5-1.1-.6-1.7-.4zM119 63h.9v1.3c.2-.4.4-.9.9-1.1.3-.2.6-.2 1-.2v.8c-1.1 0-1.8 1-2 2V69h-.8v-6zM123.6 63.1c.8-.3 1.8-.2 2.5.4.6.6.8 1.4.8 2.2a4 4 0 01-.5 2.4c-.8 1.3-2.9 1.3-3.8.1-.6-.8-.7-2-.5-3 0-.9.6-1.8 1.5-2.1m.4.7c-.7.1-1 .8-1 1.4-.2.9-.2 1.8.3 2.6.4.7 1.6.8 2.2.1.5-.5.6-1.2.6-1.8 0-.7-.1-1.4-.5-2-.4-.4-1-.5-1.6-.3zM131.8 63.1c.8-.3 1.8-.2 2.5.4.6.6.8 1.4.9 2.2a4 4 0 01-.6 2.4c-.8 1.3-2.9 1.3-3.7.1-.7-.8-.7-2-.6-3 .1-.9.6-1.8 1.5-2.1m.4.7c-.7.2-1 1-1 1.7-.1.8-.1 1.6.3 2.2.5.8 1.7.9 2.3.2.4-.5.5-1.2.5-1.8 0-.7 0-1.4-.5-2-.4-.4-1-.5-1.6-.3zM141.8 63h.8v6h-.9v-6zM144 64.2c.7-1.3 2.5-1.6 3.7-.8.7.5.6 1.5.6 2.3 0 1-.1 2.2.1 3.3h-1v-.8c-.4.4-.9.8-1.5.8-.5.1-1.2 0-1.6-.5-.6-.7-.5-2 .3-2.5.9-.6 1.9-.8 2.8-1 0-.4 0-.8-.3-1-.8-.6-1.9-.2-2.3.6l-.7-.4m1 2.5c-.5.4-.4 1.3.2 1.5.8.3 1.5-.3 2.1-.8v-1.6c-.8.2-1.7.3-2.3 1z" style="fill:#00448b"/></g><g><path d="M74.3 4c.6 0 1.2-.3 2-.4.3 0 .6.4 1 .5.3 0 .5-.3.9-.5l.2.3 1.4.1.2-.4.1.3h.7v-.3l.6.2.2-.2h.5V4l3.8-.1-.2.2c.5.4 1.2.4 1.8.7.3.2 0 .5-.2.6l.3.4c-.4.4-1.1.8-1 1.6-1.2-.2-2.2.3-3.3.1-.6 0-1.1-.3-1.7-.5-.2-.1-.5.1-.8.2l-.4-.3L79 7l-.8-.2c-.3 0-.5.2-.8.3-.4 0-.8-.2-1.1-.3-.6 0-1.1.3-1.7.3l-.1-.3-1.6.5c-.2-.2-.4-.3-.7-.2l-.2-.3c-.7.4-1.6.1-2.3.2-.3 0-.5.3-.7.5-.2-.1-.5-.3-.7.1l-.6-.2-.2-.2.1.4-1.3.4a4 4 0 00-.5-.3 5 5 0 00-.4.3h-.8l-.2-.4c0 .2-.2.3-.3.5l-.4-.2v.4l-.4-.3c0 .6-.6.7-1 .3l-1.8.7-2.8.4c-.2 0-.3.2-.5.3-.2.2-.4-.1-.6-.2-.3 0-.4.3-.7.4v.4l-.2-.3-1.4 1v2.2l.2.7-.3.3c.1.3.4.8 0 1.1l.2.6-.2 2.2c0 .5.5 1 0 1.4l.2 2.5c0 .4-.2.7-.3 1h.4l-.4.5-2 .4-1 .4-.7-.1.2-.7-.3-.2h.5c0-.2-.2-.3-.3-.4l.2-.4h.2l-.4-.1.3-.4-.3-2.1.3-.2-.4-.2.4-.1-.3-.3c.5-.4 0-1 .3-1.5l-.2-.6c0-.3.2-.5.3-.7 0-.4-.3-.8-.3-1.1.1-.4.4-.8 0-1.2l.2-.2c0-.5 0-1-.2-1.5l-.5-.1-.1-.7-.7.2c0-.8-.5-1.5-.5-2.3l1.1-.7v.2l1-.9v-.3l.6-.4c.2.5.7.2 1 .2v-.6h.4l.2-.4v.9l.7-.7.8 1 1-.4-.7.6c.4 0 .6-.3.9-.4l.4.3v-.4l.7.2c.3 0 .3-.2.4-.4.6.2 1.2 0 1.7-.2l.4.3v-.5l.3.3.3-.3.2.3.3-.4-.6-.4.5-.3.3.6.8.2c.3 0 .5-.3.8-.4.3 0 .6.5 1 .2l.1-.3c.3 0 .6.4.7 0l.1.1.8-.4c.2.4.7 0 1 .3h.2l-.3-.2c.5 0 .4-.6.1-.8h1l-.7.5.7.2v-.4c.5 0 1 .2 1.4.3l.2-.2-.2-.5c-.2 0-.3.2-.5.3-.3-.1-.5-.4-.6-.6l1.5.2-.2.5c.7 0 1.3-.3 2-.5l-.4.3.4.2v-.4l.8.6.2-.2v-.8l-.6.3.2-.3-.2-.1a7 7 0 001-.6c.4.5 1 .4 1.6.4h-.3v.6c.7.1.9-.6 1.2-1h-.3m4.7.8c.2 0 .3-.3.1-.4-.1 0-.3.2-.1.4m-3.7-.3v.2c-.3 0-.8-.1-1 .3a3 3 0 001.6-.3l-.6-.2m1.1.3c0 .2.2.2.3 0 0-.1-.1-.2-.3 0m-4 1.6h.5v-.4l-.6.4M61.8 8.2c0 .1 0 .1 0 0m-1.1.1c0 .5.4-.2 0 0m-10.2 3.5c-.2.5.5 0 0 0m1.5 1.6l.1.3c.2-.2.1-.3 0-.3m.2 4.1c.1.1.1.1 0 0m-1 3.2c.4 0 .6-.3.7-.6-.3.1-.5.3-.7.6m1.3-.5c0 .1.2.4.3.2.1-.1-.1-.4-.3-.2m.6 2.3c0 .1 0 .2.2.2.1-.1 0-.2-.1-.2z" style="fill:#d1540e"/><path d="M69.7 4.6h.8l-.4.5-.4-.5zM65.8 5.2c.3 0 .1.3 0 .3-.3 0-.1-.3 0-.3zM64.5 5.4h1-1zM62.6 5.8l.5-.2v.6l-.5-.4zM50.4 29.3c1.2-.5 2.6-.7 3.9-.2-.3 1 0 2-.6 2.8h.3c-.2.5-.1 1.1.1 1.7l-.2.3c.5.8-.2 1.6-.1 2.5-.2.2 0 .4 0 .6 0 .8 0 1.7-.3 2.5.3.4 0 .8 0 1.2 0 .3.2.6.1.9l-.7 5.3c.2.4.8.4 1.2.5.9 0 1.7-.4 2.6-.5l.1.2c1.3 0 2.6-.5 4-.6v.3l.2-.3 2-.2.2.3c1-.7 2.4-.4 3.6-.6.3 0 .7-.4 1-.1.4.2.8 0 1.3 0l2.2-.2c-.5-.4-1.1-.2-1.6-.5h3l-.2.5h1.1l.3.7v.6a61.1 61.1 0 00.1.1l.8.5-.4.5c.3.3.6.3 1 .4l-.4.2.8.6v.9c-.6.3-1.3.5-1.4 1.2-.7 0-1.4.2-2 .3l-.4-.3-.1.2a.8.8 0 00-.5-.2l-9.2.4-.1.4-.5-.3-.4.2c-.8 0-1.6-.1-2.3.3l-.3-.2-3 .6h-1.2c-.1 0-.3-.2-.6 0l-.2.4h-1.7l-1.8.5-.6-.2-.7.3c-.6-1.2-1.9-2-2-3.3 0-.3-.4-.4-.6-.6l.4-.8c.2-.1.5-.1.7-.4l.4-1.7c.3-1.2.7-2.3.9-3.6l.1-1.8.2-.2.4-4.4c0-.2.3-.3.4-.4l-.2-.4c.5-1 .4-2 .6-3 .1-.6 0-1.3-.1-2 0-.3.5-.6.2-1-.2-.3.2-.6.2-1m2.6.9c-.1 0-.3.3 0 .3.1 0 .3-.3 0-.3m-.5 1.5l.2.7v-.5l.6-.1-.4-.4-.4.3m.4.4c-.1.2 0 .3.2.2 0-.2 0-.3-.2-.2m-.4 1.5c-.1.6.2 1 .5 1.4v-.2c-.4-.3 0-.7 0-1.1h-.3c0-.3.2-.6.5-.4l-.2-.3c-.2.1-.5.3-.5.6m.8 3.4c.2-.3.2-.5.2-.8l-.2.8m18.3 8.7h.5l-.3-.3-.2.3m-7.2 5.6c0 .5.5-.2 0 0m-3.9.4c.1.5.4-.2 0 0z" style="fill:#d1540e"/><path d="M68.3 45.5l.7-.3.3.3h-1z" style="fill:#d1540e"/></g><g><path d="M76.4 4.9c.2-.2.3-.1.3 0-.1.2-.2.2-.3 0zM61.8 8.2c0 .1 0 .1 0 0zM50.5 11.8c.5 0-.2.5 0 0zM52 13.4c.2 0 .3.1.1.3-.2 0-.2-.1 0-.3zM52.6 20.2c.2-.2.4 0 .3.2-.1.2-.4 0-.3-.2zM53.3 22.5c.2 0 .2 0 0 .2-.1 0-.2 0 0-.2zM62.4 23.5c.4 0 .9 0 1.2-.2l2.6 1 .3-.2c0 .4.1.8.3 1.1l.6.3v.4l.4.4c0 .8-.6 1.4-1 2l-.6.3c-.2-.1-.3-.3-.5-.3-.5.2-.9.7-1.4.5-.7-.2-1.5-.2-2.1-.6-1 .3-2 0-2.9 0l.2-.4h-.4v.5h-2l-.2-.2-1 .3.1-.4c-.2.7-1.1.3-1.6.7-.8 0-1.5 0-2.2-.2-.7 0-1.3.2-1.9.5l-.6-.1.2-.2-.3-.2c-.2.9-1.1.6-1.8.7-1.3.2-2.8.3-4 .8l.1-.4h-.3v.3l-1-.3.3.5c-.8 0-1.5.2-2.3.4l.2.3c-.3 0-.5 0-.6-.3L39 31l-1.5.3-.5.5-.3-.4-.3.4c-.5 0-1 0-1.5.4-.3 0-.6-.2-1 0-.4.3-1 .3-1.4.4l-1 .6-2.5 1c-.4.2-.9 0-1.2.4l-1.2.7.5-.5-.8.1v.6H26l-.4.4-.3-.2-.1-.3-.5 1-.2-.2-.5.1-.2.6-.4.1c-.4.6-1.2.9-1.9.6l.2.4c-.5-.2-1 .3-1.3.4l-.2.6c-.2 0-.4-.1-.5-.3.2.5-.3.7-.7.8-.5-.1-.9.4-1.3.6-.6.5-1.5.6-2 1.2l.3.2-.9.1c-.2.6-.7.8-1 1.2l-.2-.3c-.3.1-.4.4-.6.6l-.4-.1-1.5 1.9C9.9 46 8.4 47.5 7 49c-.5.7-1 1.4-1.2 2.2 0 .3-.3.5-.5.6v-.7l.5-1-.1-.6.3.1L6 49l.4-.1v-.7l-.4-.3h.6l-.2-.5h.4l-.1-.3c0-.4.2-.8.6-1v-.4h-.4l.4-.4h-.4l.3-.4c0 .2 0 .4.2.6v-.7l.3-.2.2.3c.1-.5.2-1 0-1.5l.3-.6.2.4c.3-.1.3-.4.3-.7l-.4.1-.1-.3h.4l.6-.1-.6-.4 1-.7.3.3.2-.3h-.3v-.3c-.2 0-.3-.1 0-.3.1.2.3.2.6.2l-.2.3c.4 0 .7-.4 1-.6l-.5-.2c.6-.5 1.2-1 2-1.3-.1.4-.5.5-.7.8l1-.7c-.4-.3.1-.4.3-.6l3.4-2.1v.5c1-.4 1.7-1.2 2.6-1.6l.3.1c.5-.4 1.2-.7 1.6-1.3.7 0 1.3-.3 1.7-.8.3-.2.6-.2 1-.1.1-.4.3-.8.7-1 0 .2-.2.4-.4.6l1-.6-.6-.3.4.1.5-.2-.2.4c.3 0 .7-.2 1-.4h-.5l.5-.4.2.3.7-.3-.2-.2c.7-.4 1.5-.4 2.1-.8.9-.6 1.8-.7 2.7-1.1l1.2-.4c.5-.2 1 0 1.5-.2l1-.4.2.2c0-.4.5-.4.7-.5.5-.1.9.2 1.3.2l-.2-.4h.9c.4-.2.6-.6 1-1l3.3-.6 1.4-.5.2.3 1-.5c.8 0 1.6-.2 2.3-.4.7-.1 1.6 0 2.1-.5l.2.1c.5-.2 1.1 0 1.7 0 .5-.4 1.1-.7 1.8-.6l3-.1c2-.3 4-.5 6-.4m-19 2.7l-.2.4h.6l-.1-.3h-.4m.7.2h.3v-.4l-.3.4M54.5 28c.2 0 .4 0 .6.2v-.4l-.6.2m.9-.1c-.1.2 0 .3.2.2 0-.2 0-.3-.2-.2m-8.9 1c-.1-.1-.5.1-.2.2.2.2.6-.3.2-.3m-7.2.7c-.2 0-.4.3-.3.5.2 0 .5-.4.3-.5m-.8 1.2c.4-.2.8-.2 1.1-.2l-.9-.3-.2.5m-11.3 2.1a3 3 0 001.2-.5 5 5 0 00-.6 0c-.3 0-.4.3-.6.5M28.8 33.7c-.2.2.2.4.3.2.2-.2-.2-.4-.3-.2m-6.3 1.4c.5.1 1-.2 1.5-.3v-.5c-.6-.1-1.2.3-1.5.8m2.7-.6c-.2.1-.2.2 0 .3.2-.1.2-.2 0-.3m-3.8 1.3h.3v-.4l-.3.4m3-.2c-.3 0 0 .4.1.2.2 0 0-.4-.2-.2M9.2 41.9c.2 0 .4-.2.4-.4-.2 0-.5.2-.4.4m2.3-.3v.4c.2 0 .3-.2.4-.3l.1.4v-.6l-.5.1M7 48.4c0 .3.4 0 .4-.2-.1-.2-.5 0-.4.2z" style="fill:#f9d619"/><path d="M52.9 32c.2 0 .3 0 .2.2-.2.1-.3 0-.2-.2zM5.5 48.5h.4l.2.2h-.4s0 .2-.2.2v-.4zM64.4 51.2c.5-.2 0 .5 0 0zM60.5 51.6c.4-.2.1.5 0 0z" style="fill:#f9d619"/></g><g><path d="M26 6.4c.4-.2 0 .5 0 0zM142.6 6.7c.3-.6 1-.2 1.3 0V7c.3 0 .5-.3.8-.5l.4.7-.2.8h.9c-.3.5.1 1-.1 1.6.1.2.4.5.2.8-.5.7-1 1.3-1.1 2.1l.2.5c.2.1.2.3.2.5.8-.2 1.5.3 2.3.4.5.1 1-.2 1.3-.3.5.4 1.1.3 1.7.2.6 0 1.1.3 1.7.3.2 0 .4-.2.5-.3v.6l3.5.2c.4 0 1 .1 1 .6h1l.2.4c.3 0 .7 0 .8.4.2.4.5.6.8.8v.4l-.3 1.2-1.1.8c-.5 0-1-.2-1.5 0-.6-.2-1.2-.3-1.8-.2v-.7c-.4.2-.6.6-1 .7-.3.2-.6 0-.8-.1-.6.3-1.2 0-1.7-.3l-.6.2c-1-.3-2-.2-3.1-.2V18c-.7.2-1.3.5-2 .4-1.1-.3-2.5-.5-3.5.3l.1.5-.3.2c0 .8-1 1.2-.9 2l-.6.4.6.4-.7 1.4c-.2.3-.1.7-.2 1-.2.4-.6.6-1 .8.2.1.3.3.3.4a2 2 0 01-.4.7c0 .2.2.4 0 .6-.3.3-.4.6-.4 1 0 .3-.3.4-.5.5.3.1.3.4.3.6h-.7l.3.3h-.4c0 .2.3.5.2.8-.2.4-.7.6-1 .7l.1.4h.5c-.1.6-.7.8-.8 1.4 0 .2.3.5.2.7-.2.3-.6.4-.7.8l.2.8-.6.7.4.3c-.3.7-.6 1.5-.6 2.3 0 .4-.5.6-.6 1V41h.5c-.1.2-.1.4.2.5v.3l2-.4c-.2.5-.8.5-1.2.7-.7.2-1 1-1.7 1 .2.2.3.3.5.3h-.5v2.8c0 .3.2.5.3.7l.4 1.4c.2.3.6.5 1 .7v.6c.8.2 1.6.4 2.2 1l-.2.4c.5.6.3 1.4.3 2-.5.3-1 1-1.6 1-.7 0-1.4-.4-2.1-.5-.3 0-.5-.3-.7-.5-.2-.3-.7-.2-1-.4l-.4-.5h-.7l.1-.6-.5-.1-.4-.4c-.2.2-.5.2-.7 0 0-.2.2-.3.3-.4l-.6-.4c0-.3 0-.5-.2-.8l-.6-1v-1.8c-.2-.4-.2-.8 0-1.3-1.1.4-2 1-3 1.4-1 .3-2.2 0-3.2.3l-.7-.2c-.3 0-.6.3-1 .2-.6-.2-1.2.2-1.9.3l.2.3h-1.1c.3.4.8 0 1.2.1.3 0 .5.2.8.4-.5.2-1 .4-1.5.2-.6-.3-1.3.1-1.8.3-.3-.1-.6-.2-.8.1-1 .1-1.7-.4-2.4-1l.3-.1h.5l-.2-.5c.2 0 .6-.3.2-.3-.4 0-.7.4-1.2.4l-1.5-1.5-.6.1v-.5l-.8-.1-.7-.7.4-.2.2.8c.4 0 .7-.2.8-.5-.3-.3-.6-.7-1-.7-.2-.3-.4-.5-.8-.6l.4-.8-.8.1c0-.2.2-.3.3-.5l-.2-.6.2-.3-.6-.9v-1l-.3-.1.1-.4-1-.2c-.3-.3-.2-.7-.2-1h.5l.2-.2-.1-.3.3-.1.2.4-.4.3h1c0-.5-.3-.9-.8-1 .5-.2 0-.7 0-1l.5-.7c.1-.6 0-1.2.3-1.7.2-.4.4-.8.3-1.3l-.6.1v-.2l.5.1c0-.3.3-.6.5-.8l-.2-.3.5-.7-.2-.8c.3 0 .8.2 1-.1.3-.3.3-.7.4-1 .2-.1.5-.3.6-.6l.3-.1.1-.2c.4 0 .9-.2.9-.7l2-.8c.3-.4.3-.9.7-1.1.4-.2.8-.1 1.2-.2l-.1.5.6-.1v-.4h2.4c.5-.4 1.2-.5 1.7-.8.8 0 1.4.4 2 .7l1.5.7c.5.3.8.9 1.3 1.3.3.3.6.4 1 .6l-.4.3c.5 1.3-.3 2.6-1.3 3.3v.3l-1 1-.3-.4-.7.1v.6l-1 .3-1.2.7-3.6 1.5c-.5.2-1 0-1.4.1-1 .4-2 .4-3 .7l.3.4c-.2.2-.5.3-.7.3l-.2.4h-.4v.5h.4c.3.6-.3 1.2-.6 1.8h.5c0 .2.2.4.3.5l.9.3-.5.5.4.6.6-.1-.2.5h.9l-.4.6c.9.5 1.8.6 2.8.8.3 0 .6.5 1 .3.6-.2 1.3 0 2 0 .6 0 1.1.4 1.7.3l1.4.1.1-.4c.7 0 1.3 0 2 .2.4-.3 1-.9 1.5-.3.5-.2 1 0 1.5-.3 0-.4 0-.9.3-1.2l-.1-.2.1-.4c-.2-.5 0-1 .1-1.4l.7-2.3.4-.4c0-.3-.3-.6-.1-.9.3-1 .4-2 .8-3l.5-.1c-.3-.6-.2-1.2-.1-1.8.1-.7.5-1.3.8-2l.9-.9c-.5 0-.3-.5-.1-.8.2-.5 0-1.1.3-1.6.4-.4.7-.8.8-1.4l.3-.3c0-.4 0-1 .2-1.3.3-.5.3-1 .5-1.6.2-.2.6-.3.8-.7l-.4-.2c.2-.4.4-.7.3-1 0-.4.3-.4.5-.6l-.1-.3.2-.4-2-.2c-.6-.5-1.3 0-1.8-.4h-.4c-.5-.4-1.1 0-1.7-.2-.9-.3-2 .2-2.7-.6-.3-.3-.8.2-1.2.2L126 16c.1.2.4.4.3.7l-.8-.6h-.4l-.3-.4-.3.3h-.7v.5c-.5-.2-.8-.5-1.2-.8l-.6.2c-.4-.4-.2-1 .2-1.4.2-.3.5-.8 0-1l.2-.2-.3-1h.5v-.7c.6-.3 1-.7 1.7-.8.4-.1.8.4 1.2 0l.3-.2.4.5c.6 0 1.3.3 2 .3.4 0 .8.2 1.2.4h1.4c.6.1 1 .5 1.6.6l2.1.2.9.2c1-.3 2.1.7 3.1 0 0 .4.6.3.7 0 .4-.6.8-1.4.8-2.2 0-.4.5-.5.7-.8.5-.8.6-1.7 1-2.5l1-.7m-2.4 13.7c-.2.1-.2.2 0 .3v-.3m-22.7 8.4c-.8.5-1.4 1.1-2 1.8 2 .2 4 0 5.7-1.3l-.6-.5-.8.1-.1-.2c-.8 0-1.6-.3-2.2.1m19.2 1.1h.5v-.6c-.3 0-.5.3-.5.6m-.3 1.1c-.1.2.2.4.3.2.2-.2-.1-.4-.3-.2m-1.3 4.8c-.1.2.2.3.4.2.1-.2-.2-.4-.4-.2m-23 1.7c.1 0 .3-.2.2-.4-.2 0-.4.2-.3.4m0 1.5h1c-.2-.4-.9-.6-1 0m3 4.4l1 .5c-.2-.3-.5-.5-1-.5m.2.7c-.2.4.5 0 0 0m-2 .5l1.2.4c0-.6-.7-.6-1.1-.4m1.8.6l-.1.5 1 .3-.3.5c.4 0 .6-.3.9-.6l-1.5-.7m3.3.5c.3.1.6.2.9 0h-1m2.3.4c.3 0 .6 0 .7.3.2-.2.4-.3.7-.3l-.7-.5-.7.5m-3 0c.3.4 1 .5 1.5.2-.5-.2-1-.3-1.6-.2m.7 1.2c.3.3.6.3 1 .2a1 1 0 00-1-.2zM25.5 6.8v.3c-.3-.1-.2-.2 0-.3zM100.4 14.3c.4-.4 1-.2 1.5-.5l.8 1.1.3 1c.1.4.5.7.5 1 .2.6.2 1.1.2 1.6l.4.3c0 .4 0 .8-.4 1 .2.1.5.2.6.4l-.2.5-.2.8.6.3-.4.5.2.4-.2.2.2.6c-.1.3-.3.6 0 .8l-.2.3c.2.2.4.4.4.7l-.6.2c.5 0 .6.6.6 1 0 .3-.2.5-.3.7l.1.4-.1.4.1.4-.4.6.3.1-.1.4.4.3-.4.2c.3.3.3.7 0 1 .3.4 0 .8 0 1.3l.2.7-.2.7.2 1-.1 1-.5.3.5.2-.1.6v1l.1.3c0 .4 0 .8-.2 1 .1.7.3 1.4.1 2v.6c0 1-.1 2.2.6 3 .3.5 1 .5 1.3 1.1.2.4.3 1 .8 1 .7.2 1.5 0 2.2 0 .2.3.5.5.6.8-.2 0-.5.1-.7.3.1 0 .3 0 .5.2l-.6.6.3.5-.7.1v.6l-.5-.2h-.3c0 .3 0 .6-.2.7-.4 0-.9-.2-1.3 0l-.7-.7c0 .2-.2.4-.4.6l-.5-.6c0 .2-.2.3-.3.3-.4 0-.7-.3-1-.5l-.2.3c-.3-.2-.5-.4-.9-.5v-.7c-.3-.2-.7 0-1 0-.4-.2-.8-.6-.6-1.1l-.4-.5c-.3-.2-.7-.2-.9-.5l.2-.4a16 16 0 00-.8-1.2l.7-1v.7c.1.2.3.2.5.3.2-.6 0-1.2-.3-1.9-.5 0-.6-.6-1-1-.2-.4.3-.4.5-.6l-.3-.3.2-.3c0-.7.4-1.2.4-1.9v-1l.3.2v-1h-.4v-.9l.5.2v-.7h-.3l-.2-.5.2-.3v-1.7c.2 0 .5.3.7.1v-.7l-.7.2c-.1-.4 0-.9-.3-1 .3-.4.3-1 .2-1.5h-.6l.1-1.3c0-.5-.3-1-.2-1.5 0-.7.2-1.4.5-2.1l-.6.3v-.4c.4 0 .8.1 1.1-.1 0-.4-.6-.2-.8-.6 0-.3.2-.5.3-.8.2-.4 0-.8.1-1.3l.2-.7-.3-.7-.6.2-.7-.3-.4.7.2.1.2-.4.8.2-.5.1c-.5.5-1.2.6-1.6 1.2.2.3 0 .6-.2.8-.4.2-.3.7-.5 1-.4.4-.4 1-.7 1.5-.4.4-.5 1-.6 1.5 0 .5-.3.9-.6 1.3l.4.4c-.1.2-.4.2-.5.3l-.5 1.2c-.2.4-.2 1-.6 1.3-.2.2-.1.4-.1.6h-.3c.3.6-.5 1-.4 1.6h-.3c0 .3-.2.6-.4.8-.4.4-.3.8-.3 1.3l-.7 1v.3c-.3.3-.4.7-.3 1.1l-.4.4c.2.5 0 1.1-.3 1.5l-1.3 1h-.3l-.1-.2a55.4 55.4 0 01-.5-.1l-.3-.2c-.3.2-.7.2-1 0-.3 0-.5-.3-.6-.5-.5-.1-1 0-1.3-.3-.3-.2-.1-.5-.1-.7 0-.4-.3-.7-.1-1h.3c.2-.2.4 0 .7 0l-.2-.3c.2-.5.3-1.1 0-1.6v1l-.4-.4.1-.3-.2-.5c-.3 0-.4.3-.5.5l.5.1v1.4c-.1-.2-.5-.3-.4-.6v-.6a8 8 0 00-.4-.1c0-.6-.3-1.1-.5-1.7 0-.3.4-.5.6-.8h-.5l.1-.5.8-.3c.1-.6-.3-1.2 0-1.7l-.2-.2c.3-.4 0-.8 0-1.2h.4a61.9 61.9 0 010-.3l-1-.8h.6v-.8c-.2-.3-.4-.4-.4-.7l.5-.4-.4-.2v-.6l.4-.5-.5-.1c.1-.5 0-1-.3-1.4l-.1.6-.3.3.5.6c.2.2 0 .5 0 .7-.1.4.1.8.1 1.3h-.7v-1l-.2-.6c0-.6-.1-1.2-.5-1.8a4 4 0 00-1.1 1.3l.4.3-.4 1-.7.7c0 .3.2.6 0 .9-.2.4-.5.8-.6 1.3h-.4c0 .4.2.7.1 1l-.5.5c-.2.4-.2.9-.3 1.3-.2.4-.5.6-.5 1 0 .5-.2.9-.5 1.2v.9c-.1.3-.4.4-.6.6a8 8 0 01-1 3l.3.8c-.6.2-.6.8-.8 1.2h-.2l-1.4 1-.3-.3-.8.5-.1-.4-.6.2.2-.5-.3-.2c-.2 0-.4.2-.5.3 0-.2 0-.5.2-.6.3 0 .7.1 1-.1l-.1-.3c.2-.3.3-.6 0-.9.3-.4.4-1 .5-1.4h-.3l.3-.2.6-1-.5.2c.2-.5.5-1 .3-1.5.2 0 .5.1.5-.1.3-.5.2-1.2.6-1.7.5-.5.3-1.4.8-2-.2 0-.3-.1-.3-.3.6.2 1.6 0 1.5-.9a1 1 0 01-.9.4c0-.2 0-.3.2-.5l.8-1.2v.7c.5-.3.5-1 .6-1.5l-.5-.1c0-.5.1-1 .4-1.4l1-1.8-.1-.3c.1-.5.2-1 .5-1.4l.2-.8c.8-.8.4-2.3 1.5-3l-.2-.3c.2-.6.7-1.2.5-1.8.6-.4.9-1 1.1-1.7h.9c0-.2-.2-.6 0-.8.4-.4.8-1 1.4-1.1l.9-.3c.4.4.6.8.8 1.2l-.2 1c.4.4.5 1.2.2 1.7v.5c.3 0 .6 0 .8-.3 0 .4-.2.6-.5.7l-.3-.2c-.1.5.5 1 .2 1.4.3.5.1 1 .1 1.6l.7.5v.2l-.3.1c0 .2 0 .3.2.4l-.3.3c.4.5.3 1.2 0 1.7.2.3.3.7.2 1 0 .3.2.5.3.8l-.3.2c0 .2.3.4.5.5l-.4.3.4.3c-.2.3-.5.6-.2 1h.4c0 .4-.3 1 0 1.3l-.2.6c.2.3.4.6.4 1l-.3.1c.1.4.5.7 1 .6l.1.7c-.2 0-.4-.2-.4-.4-.4.4.3 1 .6 1.4.2-.9 1-1.4 1.5-2L89 33l.1-.2c-.2-.2-.1-.5-.1-.8h-.4c0-.5.3-.3.5-.1.3-.1.6-.6.4-1l-.5.5c0-.6.6-.6 1-.9-.2-.8.6-1.2 1-1.9l-.1-.5.2-.3-.1-.5.7-1H91l.5-.4.3.1.3-1 .2-.3c0-.3-.4-.7-.1-1l.3.2h.3c.1.2.2.6.6.7l-.1-.4c.3 0 .4-.4.5-.7h.3v-.4l-.3.4H93c0-.3.2-.5.5-.8l.7.2-.6-.3v-.5h1v-.3h-.6l-.3-.6.4-.1.2-.4c.2-.1.5-.2.6-.5l-.4-.9c.3-.3.9-.6 1-1.1.2-.3.4-.4.6-.5v-.4c.4-.2.8-.4 1-.8l.7-.7 2.5-1.6m.2 6.5c-.1.1 0 .4.1.4.3 0 .2-.6-.1-.4M82.8 24l.6.1v-.6c-.2 0-.4.3-.6.5m-.5.7l.3-.8c-.3.1-.3.5-.3.8m18.6-.7c0 .3-.1.8.2 1 0-.3 0-.7.3-1h-.5m-8.7 2.3c-.1.4-.4.8-.1 1.2.2-.3.5-.6.5-1l-.4-.2m6.8.8l.6.2.1-.4h-.4s-.2 0-.3.2M83.4 29c.2 0 .3-.2.5-.4a35 35 0 00-.3-.5l-.2 1m17.7-.5c0 .2 0 .3.2.2.1-.2 0-.2-.2-.2m-15.9 1c-.1 0-.3.3-.2.5.2.1.6-.6.2-.5M85.3 32.3c-.1.2.2.4.3.2.2-.1-.2-.3-.3-.2m.7.1c0 .1 0 .1 0 0M99.7 34c-.2.2.2.4.3.2.2-.2-.2-.4-.3-.2m0 1c0 .3 0 .4.3.3 0-.2 0-.3-.2-.2m-16.7.3l-.2.6.4.2.2.4.2-.5-.6-.3.5-.5H83m17.5 5c-.1.2.2.4.3.2.2-.1-.2-.3-.3-.1m-1.3 2.2h.9v-.3l-.5.2-.2-.3a17.4 17.4 0 00-.2.4m1.4.6h.4V43c-.2 0-.3.2-.4.3m-.1.7h.6c0-.4-.5-.3-.6 0m.3.3c-.3.1 0 .5.1.4.3 0 .1-.4-.1-.4m.4 1.6c-.2.1 0 .5.2.3.2 0 0-.5-.2-.3m-.2 2c-.1.2.1.5.3.4.1-.2-.2-.5-.3-.3zM30.9 18.1c.4 0-.2.5 0 0zM20.3 19c.1 0 .1 0 0 0zM32.1 19.8c.2-.2.4.2.2.3-.2.2-.3-.2-.2-.3z" style="fill:#6272b1"/><path d="M104.2 20.7c.2 0 .3 0 .2.3-.2 0-.3 0-.2-.3zM98.8 21.5l.4.2c0 .2-.2.3-.3.5l.1.9c-.2-.1-.5-.2-.5-.4l.3-1.2zM91.7 25.2c.2 0 .3 0 .2.3-.2 0-.3 0-.2-.3zM114.7 25.6c.1-.2.5 0 .3.2-.1.2-.5 0-.3-.2zM112.3 27.5c0-.5.6-.3.9-.3-.2.3-.6.3-.9.3zM14.5 27.3c.2 0 0 .3-.1.3-.2 0-.1-.3 0-.3zM14.6 28c.1 0 .1 0 0 0zM90 28.8c0-.3.3-.4.6-.4v.3l-.7.1zM76.3 30.3c.2 0 0 .4 0 .4-.3 0-.2-.3 0-.4zM98.8 30.6c.5 0-.2.4 0 0zM82.9 31h.2v.5l-.6.2.4-.6zM82.7 32s.3.2.3.4-.2.3-.3.4V32zM98.6 33c.1-.2.2-.4.5-.4 0 .3-.2.5-.5.5zM82.8 33c.2-.2.3.2 0 .3-.1 0-.2-.3 0-.4zM98.7 33.6c0-.3.1-.4.4-.4 0 .3-.2.3-.4.4zM109.4 33.7c.1-.2.5 0 .3.1-.1.2-.5 0-.3-.1zM82.4 33.8c.4 0-.3.4 0 0zM10.2 34c.1 0 .1.1 0 .2-.2 0-.2-.1 0-.3zM98.8 34.1c.4 0-.2.4 0 0zM108.7 35.4c.1-.2.4 0 .5.1 0 .3-.6.1-.5-.1zM98.6 37c0-.4.2-.6.4-.8v.7h-.4zM108.4 36.1l.4.4h-.4v-.4zM108.5 39.5l.5-.2v.8h-.3l-.2-.6zM109 41.6h.7c0 .4 0 .7-.2 1.1-.2-.3-.5-.7-.6-1.1zM71.6 41.8c.5 0-.2.4 0 0zM75.3 41.7c.4-.2 0 .5 0 0zM99 43.8c0-.3.3-.5.4-.6l.1.7-.4-.1zM5.8 47.5c.5 0-.2.4 0 0zM5.7 47.9c.5 0-.2.4 0 0z" style="fill:#6272b1"/></g></svg>